<?xml version="1.0" encoding="UTF-8"?>
<svg width="65px" height="65px" viewBox="0 0 65 65" version="1.1" xmlns="http://www.w3.org/2000/svg" xmlns:xlink="http://www.w3.org/1999/xlink">
    <title>Group 9</title>
    <g id="Page-1" stroke="none" stroke-width="1" fill="none" fill-rule="evenodd">
        <g id="blog-grid" transform="translate(-1077.000000, -1464.000000)">
            <g id="Group-9" transform="translate(1077.000000, 1464.000000)">
                <circle id="Oval" fill="#FFFFFF" cx="32.5" cy="32.5" r="32.5"></circle>
                <path d="M40.7442588,31.8928641 L34.9660957,26.2495114 C34.801154,26.0884215 34.5813184,26 34.3469139,26 C34.1122491,26 33.8925437,26.0885486 33.727602,26.2495114 L33.2029884,26.7620006 C33.0381768,26.9228364 32.9473808,27.1376652 32.9473808,27.3667227 C32.9473808,27.5956532 33.0381768,27.8177234 33.2029884,27.9785591 L36.5738871,31.2779787 L25.864383,31.2779787 C25.3815253,31.2779787 25,31.647164 25,32.1188726 L25,32.8433957 C25,33.3151044 25.3815253,33.7215132 25.864383,33.7215132 L36.6121307,33.7215132 L33.2031185,37.0393538 C33.0383069,37.2004437 32.9475109,37.4094285 32.9475109,37.638486 C32.9475109,37.8672895 33.0383069,38.0793234 33.2031185,38.2402861 L33.727732,38.7511238 C33.8926737,38.9122137 34.1123792,39 34.3470439,39 C34.5814485,39 34.801284,38.9110703 34.9662258,38.7499805 L40.7443889,33.1067547 C40.9097209,32.9451568 41.0006469,32.7294387 41,32.500127 C41.0005169,32.2700532 40.9097209,32.054208 40.7442588,31.8928641 Z" id="Path" fill="#000000" fill-rule="nonzero"></path>
            </g>
        </g>
    </g>
</svg>