<?xml version="1.0" encoding="UTF-8"?>
<svg width="21px" height="22px" viewBox="0 0 21 22" version="1.1" xmlns="http://www.w3.org/2000/svg" xmlns:xlink="http://www.w3.org/1999/xlink">
    <title>open-menu</title>
    <g id="desktop" stroke="none" stroke-width="1" fill="none" fill-rule="evenodd">
        <g id="gun-detail-open-copy" transform="translate(-1603.000000, -119.000000)" fill="#FFFFFF" fill-rule="nonzero">
            <g id="open-menu" transform="translate(1603.000000, 119.000000)">
                <path d="M22.9453125,10 L-1.9453125,10 C-2.52781641,10 -3,10.4477 -3,11 C-3,11.5523 -2.52781641,12 -1.9453125,12 L22.9453125,12 C23.5278164,12 24,11.5523 24,11 C24,10.4477 23.5278164,10 22.9453125,10 Z" id="Path" transform="translate(10.500000, 11.000000) rotate(-45.000000) translate(-10.500000, -11.000000) "></path>
                <path d="M22.9453125,10 L-1.9453125,10 C-2.52781641,10 -3,10.4477 -3,11 C-3,11.5523 -2.52781641,12 -1.9453125,12 L22.9453125,12 C23.5278164,12 24,11.5523 24,11 C24,10.4477 23.5278164,10 22.9453125,10 Z" id="Path" transform="translate(10.500000, 11.000000) rotate(-315.000000) translate(-10.500000, -11.000000) "></path>
            </g>
        </g>
    </g>
</svg>