<?xml version="1.0" encoding="UTF-8"?>
<svg width="8px" height="5px" viewBox="0 0 8 5" version="1.1" xmlns="http://www.w3.org/2000/svg" xmlns:xlink="http://www.w3.org/1999/xlink">
    <title>Path</title>
    <g id="desktop" stroke="none" stroke-width="1" fill="none" fill-rule="evenodd">
        <g id="rentals-category" transform="translate(-1794.000000, -837.000000)" fill="#FFFFFF" fill-rule="nonzero">
            <path d="M1799.89139,839.22686 L1796.86148,836.111828 C1796.7914,836.039723 1796.69785,836 1796.5981,836 C1796.49835,836 1796.4048,836.039723 1796.33473,836.111828 L1796.11159,836.341176 C1795.9664,836.490622 1795.9664,836.733514 1796.11159,836.882733 L1798.65589,839.498549 L1796.10877,842.117267 C1796.03869,842.189372 1796,842.285494 1796,842.387989 C1796,842.490598 1796.03869,842.586719 1796.10877,842.658881 L1796.3319,842.888172 C1796.40204,842.960277 1796.49553,843 1796.59528,843 C1796.69503,843 1796.78857,842.960277 1796.85865,842.888172 L1799.89139,839.770295 C1799.96164,839.697962 1800.00022,839.601385 1800,839.49872 C1800.00022,839.395655 1799.96164,839.299136 1799.89139,839.22686 Z" id="Path" transform="translate(1798.000000, 839.500000) rotate(-270.000000) translate(-1798.000000, -839.500000) "></path>
        </g>
    </g>
</svg>