<?xml version="1.0" encoding="UTF-8"?>
<svg width="25px" height="25px" viewBox="0 0 25 25" version="1.1" xmlns="http://www.w3.org/2000/svg" xmlns:xlink="http://www.w3.org/1999/xlink">
    <title>001-facebook</title>
    <g id="desktop" stroke="none" stroke-width="1" fill="none" fill-rule="evenodd">
        <g id="contacts" transform="translate(-1325.000000, -632.000000)" fill="#FFFFFF" fill-rule="nonzero">
            <g id="Group" transform="translate(1325.000000, 632.000000)">
                <g id="001-facebook">
                    <path d="M23.1969833,0 L1.80301665,0 C0.807189941,0 0,0.807189941 0,1.80301665 L0,23.1969833 C0,24.1928101 0.807189941,25 1.80301665,25 L13.3544922,25 L13.3544922,15.3320312 L10.1074219,15.3320312 L10.1074219,11.5478516 L13.3544922,11.5478516 L13.3544922,8.76293184 C13.3544922,5.53340913 15.3261185,3.77559663 18.2069778,3.77559663 C19.5867539,3.77559663 20.7725525,3.87840273 21.1181641,3.92436982 L21.1181641,7.29980469 L19.1316604,7.29980469 C17.5642014,7.29980469 17.2607422,8.04462432 17.2607422,9.13772583 L17.2607422,11.5478516 L21.0083008,11.5478516 L20.5200195,15.3320312 L17.2607422,15.3320312 L17.2607422,25 L23.1969833,25 C24.1928101,25 25,24.1928101 25,23.1969833 L25,1.80301665 C25,0.807189941 24.1928101,0 23.1969833,0 Z" id="Path"></path>
                </g>
            </g>
        </g>
    </g>
</svg>