<?xml version="1.0" encoding="UTF-8"?>
<svg width="61px" height="72px" viewBox="0 0 61 72" version="1.1" xmlns="http://www.w3.org/2000/svg" xmlns:xlink="http://www.w3.org/1999/xlink">
    <title>machine-gun</title>
    <g id="desktop" stroke="none" stroke-width="1" fill="none" fill-rule="evenodd">
        <g id="about" transform="translate(-455.000000, -1058.000000)" fill="#FBC02D" fill-rule="nonzero">
            <g id="1" transform="translate(387.000000, 1058.000000)">
                <g id="machine-gun" transform="translate(68.000000, 0.000000)">
                    <path d="M60.6480593,8.94468103 L58.9496765,7.22685649 L60.6480593,5.50903195 L58.9496765,3.79135924 L57.2511435,5.50903195 L55.5527607,3.79135924 L52.1556947,0.355710162 C51.6866821,-0.118570054 50.9263246,-0.118570054 50.4573119,0.355710162 L47.9095125,2.93229514 C47.587803,3.25761572 47.475457,3.7388488 47.6193176,4.17534176 L49.0832026,8.6165726 L30.9246332,26.9812314 L29.8641385,25.90854 L34.2778622,21.8698152 C34.5217156,21.6466129 34.6643933,21.3320368 34.6725932,20.999511 C34.6807932,20.6669852 34.5537978,20.3456072 34.3212488,20.1103887 L29.2258,14.9570669 C28.9932179,14.7218278 28.6754158,14.5933589 28.3465865,14.6016522 C28.0177572,14.6099455 27.7066816,14.7542751 27.4859822,15.0009463 L11.3506697,33.0374966 C10.9212904,33.5174407 10.939448,34.2535949 11.3919545,34.71129 L14.7890204,38.1469391 C15.2415755,38.6045851 15.9694625,38.6229489 16.4440167,38.1886928 L19.163561,35.7000184 L20.7337357,37.2880268 L0.351790513,57.9013139 C0.126543455,58.1291076 0,58.4380691 0,58.7602262 C0,59.0823833 0.126543455,59.3913449 0.351790513,59.6191385 L12.2418215,71.6442139 C12.467057,71.8720193 12.7725488,72 13.091088,72 C13.4096272,72 13.715119,71.8720193 13.9403545,71.6442139 L16.4880038,69.0674771 C16.7132898,68.8397011 16.8398725,68.5307374 16.8399007,68.2085648 L16.8399007,54.9688353 L19.0358032,52.7479922 C19.5047572,52.2736525 19.5047572,51.5046591 19.0358032,51.0303194 L18.1865367,50.1712553 L19.8850697,48.4534308 L20.7343362,49.3124949 C21.2033489,49.7867751 21.9637064,49.7867751 22.432719,49.3124949 C23.3713953,48.3652387 24.8911087,48.3652387 25.829785,49.3124949 L26.4949962,49.9852614 L31.4985674,63.4815866 C31.6419515,63.8682466 31.9697576,64.154743 32.3688221,64.2421732 C32.7678866,64.3296033 33.1835362,64.205989 33.4722825,63.9140035 L38.5675812,58.7596189 C38.9006281,58.4228135 39.0082838,57.9202156 38.8429134,57.4742112 L35.871907,49.4614419 L39.4168476,45.8762385 C39.7384991,45.5509478 39.8508409,45.0697917 39.7070425,44.6333437 L38.5088816,40.997884 L42.048718,43.3846793 L50.4576122,51.8890799 C50.9266248,52.3633601 51.6869823,52.3633601 52.155995,51.8890799 L58.9499767,45.0179336 C59.4189307,44.5435939 59.4189307,43.7746005 58.9499767,43.3002608 L45.3620133,29.5579682 L46.2112797,28.6990559 C47.2878124,27.6065163 47.5683551,25.9471849 46.9119208,24.5549598 L60.6485097,10.6623537 C61.1173393,10.1878884 61.1171376,9.41889487 60.6480593,8.94468103 Z M50,4.26137464 L51.2258115,3 L53,4.8255889 L50.8870942,7 L50,4.26137464 Z M28.6006579,17 L32,20.3993771 L19.178342,32 L17,29.8216356 L28.6006579,17 Z M15.9984841,36 L14,34.001095 L15.8103419,32 L18,34.1899347 L15.9984841,36 Z M21,34.5036211 L27.8931402,28 L29,29.1542025 L22.435001,36 L21,34.5036211 Z M12.666814,49 L16,52.3335789 L9.33303873,59 L6,55.6671577 L12.666814,49 Z M3,58.6660774 L4.66666667,57 L8,60.3333333 L6.33333333,62 L3,58.6660774 Z M14,67.5990371 L12.7456948,69 L8,63.7006376 L14,57 L14,67.5990371 Z M16.5,48 L15,46.5 L16.5,45 L18,46.5 L16.5,48 Z M32.9443622,61 L29,49.3767932 L32.0556378,46 L36,57.6233637 L32.9443622,61 Z M34.8759103,47 L34,44.4246267 L36.1974369,42 L37,44.6566169 L34.8759103,47 Z M50.9360152,50 L44,42.679435 L45.2659216,40.4526418 L50.9360152,46.4372568 L52.6238112,44.6560426 L46.531694,38.2267932 L47.7974665,36 L56,44.6566724 L50.9360152,50 Z M42.0648375,40.1850067 L38.0475744,37.4790978 C37.5747905,37.1606124 36.9453016,37.2236384 36.5435407,37.6296854 L27.2716959,47 C25.7326532,45.4493276 23.3520611,45.1435918 21.4781711,46.2559466 L18,42.7406292 L36.5435407,24 L46,33.5577962 L42.0648375,40.1850067 Z M39,22.7502707 L40.618761,21 L44.6653057,25.3752127 C45.1115648,25.8587085 45.1115648,26.6415235 44.6653057,27.1250193 L43.8559968,28 L39,22.7502707 Z M45.3683349,23 L42,19.6316338 L44.5265117,17.1052475 L46.2106047,18.789505 L47.8948465,17.1052475 L46.2106047,15.4211388 L47.8948465,13.7368813 L49.5790884,15.4203945 L51.2631814,13.7362858 L49.5789395,12.0526237 L51.2631814,10.3683662 L52.9474233,12.0526237 L54.6316651,10.3683662 L52.9474233,8.68425754 L54.6316651,7 L58,10.3683662 L45.3683349,23 Z" id="Shape"></path>
                    <polygon id="Path" points="22 43.3 37.3 28 39 29.7 23.7 45"></polygon>
                    <polygon id="Path" points="39 36.259901 43.4974364 31 47.9948727 36.259901 43.4974364 41.519802"></polygon>
                </g>
            </g>
        </g>
    </g>
</svg>