<?xml version="1.0" encoding="UTF-8"?>
<svg width="51px" height="51px" viewBox="0 0 51 51" version="1.1" xmlns="http://www.w3.org/2000/svg" xmlns:xlink="http://www.w3.org/1999/xlink">
    <title>icon1</title>
    <defs>
        <rect id="path-1" x="0.438100626" y="0.184685235" width="41" height="41" rx="2"></rect>
        <filter x="-18.3%" y="-18.3%" width="136.6%" height="136.6%" filterUnits="objectBoundingBox" id="filter-2">
            <feMorphology radius="2" operator="dilate" in="SourceAlpha" result="shadowSpreadOuter1"></feMorphology>
            <feOffset dx="0" dy="0" in="shadowSpreadOuter1" result="shadowOffsetOuter1"></feOffset>
            <feMorphology radius="2" operator="erode" in="SourceAlpha" result="shadowInner"></feMorphology>
            <feOffset dx="0" dy="0" in="shadowInner" result="shadowInner"></feOffset>
            <feComposite in="shadowOffsetOuter1" in2="shadowInner" operator="out" result="shadowOffsetOuter1"></feComposite>
            <feGaussianBlur stdDeviation="1.5" in="shadowOffsetOuter1" result="shadowBlurOuter1"></feGaussianBlur>
            <feColorMatrix values="0 0 0 0 0.45887115   0 0 0 0 0.337654307   0 0 0 0 0.035639459  0 0 0 1 0" type="matrix" in="shadowBlurOuter1"></feColorMatrix>
        </filter>
    </defs>
    <g id="desktop" stroke="none" stroke-width="1" fill="none" fill-rule="evenodd">
        <g id="rentals-main" transform="translate(-637.000000, -537.000000)">
            <g id="long" transform="translate(633.000000, 383.000000)">
                <g id="long-guns" transform="translate(8.000000, 158.000000)">
                    <g id="icon1" transform="translate(0.561899, 0.815315)">
                        <g stroke-width="1" fill-rule="evenodd" transform="translate(21.000000, 21.500000) rotate(-31.000000) translate(-21.000000, -21.500000) translate(1.000000, 16.000000)" fill="#FBC02D">
                            <polyline id="1111" points="37.1770833 4.03125 37.1770833 2.6875 35.8333333 4.03125 37.1770833 4.03125"></polyline>
                            <path d="M38.3001417,2.23958333 L37.3679931,2.23958333 L37.3679931,2.59823943 L37.3038474,2.66056601 L37.2939201,2.6700263 L37.1770833,2.78716688 L37.1770833,4.47916667 L38.3001417,4.47916667 C38.4220694,4.47916667 38.5208333,4.35534823 38.5208333,4.20231421 L38.5208333,2.51671403 C38.5208333,2.36368001 38.4220694,2.23958333 38.3001417,2.23958333" id="2222"></path>
                            <path d="M19.7083333,0.447916667 L19.7083333,1.45053752 L26.3948325,1.45053752 L27.6520868,1.13220097 L27.6769358,1.12586969 L36.746561,1.12586969 C36.9472035,1.12586969 37.1285485,1.23147537 37.2147269,1.39330279 C37.2580805,1.46547933 37.2810791,1.54955868 37.2810791,1.63667703 L37.2810791,1.7878679 L39.8645833,1.79166667 L39.8645833,0.477547038 L19.7083333,0.447916667" id="3333"></path>
                            <path d="M17.5390766,1.24026529 C17.5390766,1.39789432 17.4046956,1.52574899 17.2393439,1.52574899 L12.5572664,1.52574899 C12.3916522,1.52574899 12.2575336,1.39789432 12.2575336,1.24026529 L12.2575336,0.633018192 C12.2575336,0.475389156 12.3916522,0.347534493 12.5572664,0.347534493 L17.2393439,0.347534493 C17.4046956,0.347534493 17.5390766,0.475389156 17.5390766,0.633018192 L17.5390766,1.24026529 Z M19.7083333,1.33809537 L19.7083333,0 L7.39750624,0 C7.27598587,0 7.15499043,0.0140114699 7.03714454,0.0415339999 L2.72120294,1.05161085 C2.50204633,1.10290284 2.32908322,1.24777143 2.23958333,1.43417402 L10.630263,1.43417402 C11.2696229,1.43417402 11.8299814,1.75693824 12.1457244,2.23958333 L19.0117565,2.23958333 L19.0117565,1.33809537 L19.7083333,1.33809537 L19.7083333,1.33809537 Z" id="4444"></path>
                            <path d="M12.0963458,0.480166667 C12.0958266,0.487333333 12.09375,0.494052083 12.09375,0.50121875 L12.09375,0.863583333 L17.0208333,0.863583333 L17.0208333,0.50121875 C17.0208333,0.494052083 17.0187567,0.487333333 17.0182375,0.480166667 L12.0963458,0.480166667" id="5555"></path>
                            <path d="M12.09375,1.16483444 C12.09375,1.26370883 12.1602024,1.34375 12.24197,1.34375 L16.8726133,1.34375 C16.9543809,1.34375 17.0208333,1.26370883 17.0208333,1.16483444 L17.0208333,0.895833333 L12.09375,0.895833333 L12.09375,1.16483444" id="6666"></path>
                            <path d="M12.2345856,3.41408081 L12.2345856,3.58333333 L18.8125,3.58333333 L18.8125,2.6875 L12.09375,2.6875 C12.1843246,2.91097906 12.2345856,3.15636783 12.2345856,3.41408081" id="7777"></path>
                            <path d="M5.63015706,4.92708333 L5.37901761,4.92752236 C5.35609025,5.20762119 5.42487232,5.53140315 5.75286086,5.82291667 L5.82291667,5.82291667 C5.82143063,5.7135991 5.55203422,5.45654915 5.63015706,4.92708333" id="8888"></path>
                            <path d="M7.91587758,3.41066558 C7.75655306,3.41066558 7.62760145,3.28126306 7.62760145,3.1219779 C7.62760145,2.96269274 7.75655306,2.83329023 7.91587758,2.83329023 C8.07493566,2.83329023 8.20415371,2.96269274 8.20415371,3.1219779 C8.20415371,3.28126306 8.07493566,3.41066558 7.91587758,3.41066558 Z M7.68701511,5.02779683 L7.68701511,5.6686728 C7.68701511,5.90346499 7.49625198,6.09450046 7.26046235,6.09450046 L4.94972404,6.09450046 C4.6475936,6.09450046 4.44191045,5.78740294 4.55594204,5.50751997 L4.81144741,4.87411466 C4.87752179,4.71322865 5.03231701,4.60783897 5.20656155,4.60623811 L7.25886378,4.60196916 C7.26046235,4.60196916 7.26046235,4.60196916 7.26206092,4.60196916 C7.29110168,4.60196916 7.31987601,4.60490407 7.34758462,4.61050706 C7.40273541,4.62197986 7.4541562,4.64412504 7.49944912,4.67480811 C7.56738851,4.72069931 7.62120715,4.78580078 7.65371149,4.86210824 C7.67529223,4.91306882 7.68701511,4.96909878 7.68701511,5.02779683 Z M4.24661803,3.1219779 C4.24661803,2.96269274 4.37556964,2.83329023 4.53462773,2.83329023 C4.69395224,2.83329023 4.82290385,2.96269274 4.82290385,3.1219779 C4.82290385,3.28126306 4.69395224,3.41066558 4.53462773,3.41066558 C4.37556964,3.41066558 4.24661803,3.28126306 4.24661803,3.1219779 Z M4.02228485,6.2303064 C3.67539435,6.38719028 3.48116764,6.76152375 3.5525706,7.13585721 L3.59173566,7.34210081 C3.59626495,7.36584684 3.58320993,7.38905925 3.56056347,7.39733034 L3.49395623,7.42214361 C3.08578708,7.57262406 2.8651839,8.01552752 2.99040551,8.43281728 L3.06820276,8.69162232 C3.07353134,8.71029897 3.06793634,8.72977605 3.05434846,8.74204928 L2.84626745,8.82155845 L2.82388741,8.83356487 C2.51696126,8.99631855 2.36722819,9.26312787 2.39067394,9.60464379 C2.39600251,9.67988401 2.41411968,9.75832595 2.43916401,9.83463342 C1.61563211,9.72577522 0.922650401,9.56755729 0.537926992,9.39733295 C0.443078284,9.35517708 0.39325607,9.23911503 0.424428258,9.13319173 C0.767055892,7.97257122 1.45737331,6.66627282 2.3525746,5.46883262 C2.4924498,5.2820661 2.71944726,5.18121218 2.95097403,5.20842673 L3.55949776,5.28019844 C3.8368503,5.31274917 4.07663635,5.51712511 4.1184657,5.79353956 C4.13631644,5.91146927 4.1792115,6.02619728 4.24661803,6.12918567 L4.02228485,6.2303064 Z M10.4802563,1.79166667 L1.79254093,1.79166667 C1.52477984,1.79166667 1.30764024,2.00884945 1.30764024,2.27699281 L1.30764024,2.96322636 C1.30764024,3.22443268 1.51598768,3.42827499 1.77628877,3.44428355 C1.97238048,3.45655678 2.13596786,3.51765611 2.26465304,3.6089049 C2.46314261,3.74871298 2.57584206,3.96082638 2.5936928,4.1790764 C2.59715637,4.21936461 2.59715637,4.25991962 2.59395923,4.30020783 C2.59076208,4.34049604 2.58410136,4.38078424 2.57397706,4.42027202 C2.55399488,4.49924758 2.52015841,4.57555504 2.4722012,4.64545908 C1.39129893,5.9522911 0.46465903,7.53046819 0.0263834007,9.01526202 C-0.0631367277,9.31889101 0.0810013362,9.64920094 0.370076751,9.77726941 C0.737215849,9.9400231 1.28099734,10.0686252 1.83703457,10.1636093 C2.17087005,10.2204397 2.50896839,10.2652636 2.8164274,10.2978144 C2.83081457,10.2994152 2.84333673,10.2994152 2.85665818,10.3002157 C2.86731533,10.3007493 2.87903821,10.3020833 2.88916251,10.3020833 L2.88942894,10.3020833 C2.92459756,10.3018165 2.95283903,10.2972808 2.97708406,10.2895433 C2.98054764,10.2884761 2.9848105,10.2879424 2.98800765,10.2866084 C3.00932197,10.2783373 3.02477485,10.2657973 3.035432,10.2500555 C3.03729701,10.2471206 3.03916201,10.2439189 3.04076058,10.2404504 C3.04928631,10.2233746 3.05248346,10.2022967 3.04955274,10.1769498 C3.04901988,10.1729476 3.04742131,10.1684119 3.04662202,10.1644097 C3.04155987,10.1361279 3.03143557,10.1046444 3.01225268,10.0667575 C3.01225268,10.0667575 2.81802598,9.76686385 2.80470453,9.57609519 C2.80177381,9.53100442 2.80337238,9.49018259 2.81056597,9.45336291 C2.83134743,9.34210342 2.89822109,9.26446191 3.01811412,9.2009613 L3.23818444,9.11664955 C3.33623029,9.06488855 3.4089654,8.98191085 3.44919617,8.88532588 C3.46944477,8.83703339 3.48143407,8.78527239 3.48463122,8.73244414 C3.48756194,8.6796159 3.48143407,8.62545361 3.46571476,8.57235856 L3.38791751,8.31328671 C3.35701175,8.2097647 3.36873462,8.10330778 3.41349469,8.01312623 C3.43587472,7.96803546 3.46651405,7.92721364 3.50434696,7.89279523 C3.54217987,7.85864364 3.58693994,7.83089547 3.63729501,7.81221882 L3.70443511,7.78713875 C3.81074026,7.74791778 3.89519824,7.67294436 3.94768474,7.57982791 C3.98711623,7.51019068 4.00843054,7.43014788 4.00789768,7.34770381 C4.00763126,7.31995564 4.00496697,7.29220747 3.99963839,7.2644593 L3.96047333,7.0582157 C3.92503828,6.87251642 4.02148556,6.68681714 4.19359867,6.60917563 L4.62654572,6.41333759 L7.35184748,6.41333759 C7.55033705,6.41333759 7.69607369,6.3591753 7.82555816,6.26018905 C7.90681899,6.19802248 7.9694298,6.11691244 8.01259129,6.02593047 C8.05548635,5.93494849 8.0789321,5.83382776 8.08212924,5.7316398 L8.0890564,4.86637719 C8.09172069,4.51632337 8.37147109,4.23163784 8.72102588,4.22390037 C9.24722306,4.21216076 9.87679468,4.20148838 10.6939323,4.19668582 C10.8015696,4.19588539 10.9211962,4.18147769 11.0458849,4.1561308 C11.1703072,4.13078392 11.2995253,4.09449785 11.426079,4.04994069 C11.5523664,4.00538354 11.675723,3.95228849 11.7884224,3.89385725 C11.9013883,3.8351592 12.003697,3.77112496 12.0876221,3.70415582 L12.09375,3.69908645 L12.09375,3.40746387 C12.09375,2.51498672 11.3714611,1.79166667 10.4802563,1.79166667 L10.4802563,1.79166667 Z" id="9999"></path>
                            <path d="M36.3462752,2.35350755 L27.6462327,2.35350755 C27.5165613,2.35350755 27.4112702,2.24430702 27.4112702,2.10954301 C27.4112702,1.97505687 27.5165613,1.86585634 27.6462327,1.86585634 L36.3462752,1.86585634 C36.4759467,1.86585634 36.5812377,1.97505687 36.5812377,2.10954301 C36.5812377,2.24430702 36.4759467,2.35350755 36.3462752,2.35350755 Z M34.4628244,3.17681839 L34.1107825,4.20324778 L33.5361023,4.20324778 L33.8881442,3.17681839 C33.9339578,3.04288798 34.0981904,2.93368745 34.2554573,2.93368745 L34.2610835,2.93368745 C34.4180824,2.93368745 34.5086381,3.04288798 34.4628244,3.17681839 Z M33.4541199,3.17681839 L33.102078,4.20324778 L32.5273978,4.20324778 L32.8794397,3.17681839 C32.9255213,3.04288798 33.089486,2.93368745 33.2467528,2.93368745 L33.252379,2.93368745 C33.4096458,2.93368745 33.4999336,3.04288798 33.4541199,3.17681839 Z M32.4454155,3.17681839 L32.0933736,4.20324778 L31.5173538,4.20324778 L31.8693956,3.17681839 C31.9152093,3.04288798 32.0807815,2.93368745 32.2380483,2.93368745 L32.2436746,2.93368745 C32.4009414,2.93368745 32.4912291,3.04288798 32.4454155,3.17681839 Z M31.4353714,3.17681839 L31.0833295,4.20324778 L30.5086493,4.20324778 L30.8606912,3.17681839 C30.9067728,3.04288798 31.0707375,2.93368745 31.2280043,2.93368745 L31.2336305,2.93368745 C31.3908973,2.93368745 31.4811851,3.04288798 31.4353714,3.17681839 Z M30.4266669,3.17681839 L30.0746251,4.20324778 L29.5002128,4.20324778 L29.8519867,3.17681839 C29.8980683,3.04288798 30.062033,2.93368745 30.2192998,2.93368745 L30.2249261,2.93368745 C30.3821929,2.93368745 30.4724806,3.04288798 30.4266669,3.17681839 Z M29.4179625,3.17681839 L29.0659206,4.20324778 L28.4901687,4.20324778 L28.8419427,3.17681839 C28.8880243,3.04288798 29.0535965,2.93368745 29.2108633,2.93368745 L29.2162216,2.93368745 C29.3734884,2.93368745 29.4640441,3.04288798 29.4179625,3.17681839 Z M28.4079184,3.17681839 L28.0558766,4.20324778 L27.4814642,4.20324778 L27.8335061,3.17681839 C27.8793198,3.04288798 28.0435524,2.93368745 28.2005513,2.93368745 L28.2075171,2.93368745 C28.3647839,2.93368745 28.454,3.04288798 28.4079184,3.17681839 Z M27.399214,3.17681839 L27.04744,4.20324778 L26.4727598,4.20324778 L26.8248017,3.17681839 C26.8706153,3.04288798 27.0348479,2.93368745 27.1921148,2.93368745 L27.1974731,2.93368745 C27.3547399,2.93368745 27.4452956,3.04288798 27.399214,3.17681839 Z M26.3907774,3.17681839 L26.0387355,4.20324778 L25.4627157,4.20324778 L25.8147576,3.17681839 C25.8605713,3.04288798 26.0261435,2.93368745 26.1834103,2.93368745 L26.1890365,2.93368745 C26.3460354,2.93368745 26.4365911,3.04288798 26.3907774,3.17681839 Z M25.3804655,3.17681839 L25.0286915,4.20324778 L24.4540113,4.20324778 L24.8060531,3.17681839 C24.8518668,3.04288798 25.0160994,2.93368745 25.1733662,2.93368745 L25.1803321,2.93368745 C25.337331,2.93368745 25.426547,3.04288798 25.3804655,3.17681839 Z M24.3720289,3.17681839 L24.019987,4.20324778 L23.4453068,4.20324778 L23.7973487,3.17681839 C23.8431623,3.04288798 24.007395,2.93368745 24.1646618,2.93368745 L24.170288,2.93368745 C24.3275548,2.93368745 24.4178426,3.04288798 24.3720289,3.17681839 Z M23.3633244,3.17681839 L23.0112826,4.20324778 L22.4352628,4.20324778 L22.7873046,3.17681839 C22.8331183,3.04288798 22.9986905,2.93368745 23.1559573,2.93368745 L23.1615836,2.93368745 C23.3188504,2.93368745 23.4091381,3.04288798 23.3633244,3.17681839 Z M22.35462,3.17681839 L22.0025781,4.20324778 L21.4265583,4.20324778 L21.7786002,3.17681839 C21.8244138,3.04288798 21.989986,2.93368745 22.1472528,2.93368745 L22.1528791,2.93368745 C22.3101459,2.93368745 22.4004337,3.04288798 22.35462,3.17681839 Z M21.3445759,3.17681839 L20.9925341,4.20324778 L20.4178538,4.20324778 L20.7698957,3.17681839 C20.8159773,3.04288798 20.979942,2.93368745 21.1372088,2.93368745 L21.142835,2.93368745 C21.3001018,2.93368745 21.3903896,3.04288798 21.3445759,3.17681839 Z M37.1770833,2.24208411 L37.1770833,1.69580361 C37.1770833,1.66635003 37.1736004,1.63745218 37.1669025,1.60994365 C37.1599367,1.58243512 37.1500238,1.55659378 37.136628,1.53269748 C37.1090326,1.47656896 37.0664339,1.42933209 37.0147261,1.39598842 C36.9887382,1.37931658 36.9603391,1.36625698 36.9306004,1.35736533 C36.9005938,1.34847369 36.8689797,1.34375 36.8362939,1.34375 L27.6706131,1.34375 L26.3712195,1.69997157 L18.8125,1.69997157 L18.8125,3.70864997 C18.8125,3.76172198 18.8175904,3.81368254 18.8275033,3.86397591 C18.8473291,3.96428479 18.885909,4.05764707 18.9392244,4.13961694 C19.045855,4.30355666 19.2116951,4.42248242 19.4045948,4.46360629 C19.4528197,4.47388725 19.50292,4.47916667 19.554092,4.47916667 L34.6951077,4.47916667 C34.8223679,4.47916667 34.9472169,4.45471464 35.0637604,4.4080335 C35.180304,4.36135236 35.2885421,4.2924421 35.3823128,4.20352564 L36.9683766,2.7044497 L37.1644913,2.51828086 L37.1770833,2.50661058 L37.1770833,2.24208411 L37.1770833,2.24208411 Z" id="0000"></path>
                            <path d="M1.56770833,8.0625 C1.44393099,8.0625 1.34375,8.16268099 1.34375,8.28645833 C1.34375,8.41002869 1.44393099,8.51041667 1.56770833,8.51041667 C1.69127869,8.51041667 1.79166667,8.41002869 1.79166667,8.28645833 C1.79166667,8.16268099 1.69127869,8.0625 1.56770833,8.0625" id="0111"></path>
                        </g>
                        <g id="Rectangle-Copy-6" transform="translate(20.938101, 20.684685) rotate(-180.000000) translate(-20.938101, -20.684685) ">
                            <use fill="black" fill-opacity="1" filter="url(#filter-2)" xlink:href="#path-1"></use>
                            <use stroke="#FBC02D" stroke-width="2" xlink:href="#path-1"></use>
                        </g>
                    </g>
                </g>
            </g>
        </g>
    </g>
</svg>