<?xml version="1.0" encoding="UTF-8"?>
<svg width="51px" height="51px" viewBox="0 0 51 51" version="1.1" xmlns="http://www.w3.org/2000/svg" xmlns:xlink="http://www.w3.org/1999/xlink">
    <title>hand guns</title>
    <defs>
        <rect id="path-1" x="0" y="0" width="43" height="43" rx="4"></rect>
        <filter x="-15.1%" y="-15.1%" width="130.2%" height="130.2%" filterUnits="objectBoundingBox" id="filter-2">
            <feMorphology radius="1" operator="dilate" in="SourceAlpha" result="shadowSpreadOuter1"></feMorphology>
            <feOffset dx="0" dy="0" in="shadowSpreadOuter1" result="shadowOffsetOuter1"></feOffset>
            <feMorphology radius="3" operator="erode" in="SourceAlpha" result="shadowInner"></feMorphology>
            <feOffset dx="0" dy="0" in="shadowInner" result="shadowInner"></feOffset>
            <feComposite in="shadowOffsetOuter1" in2="shadowInner" operator="out" result="shadowOffsetOuter1"></feComposite>
            <feGaussianBlur stdDeviation="1.5" in="shadowOffsetOuter1" result="shadowBlurOuter1"></feGaussianBlur>
            <feColorMatrix values="0 0 0 0 0.458823529   0 0 0 0 0.337254902   0 0 0 0 0.0352941176  0 0 0 1 0" type="matrix" in="shadowBlurOuter1"></feColorMatrix>
        </filter>
    </defs>
    <g id="desktop" stroke="none" stroke-width="1" fill="none" fill-rule="evenodd">
        <g id="rentals-main" transform="translate(-96.000000, -502.000000)">
            <g id="hand" transform="translate(93.000000, 347.000000)">
                <g id="hand-guns" transform="translate(7.000000, 159.000000)">
                    <g id="Rectangle-Copy">
                        <use fill="black" fill-opacity="1" filter="url(#filter-2)" xlink:href="#path-1"></use>
                        <rect stroke="#FBC02D" stroke-width="2" stroke-linejoin="square" x="1" y="1" width="41" height="41" rx="4"></rect>
                    </g>
                    <g id="icon-0" transform="translate(23.067708, 21.723958) rotate(-30.000000) translate(-23.067708, -21.723958) translate(9.406250, 15.229167)" fill="#FBC02D">
                        <path d="M8.68782405,6.27083333 L7.61458333,6.27083333 C7.65916985,6.35831049 7.72216629,6.43650976 7.79954548,6.48256781 C7.98134343,6.59058884 8.19622169,6.58197367 8.40045673,6.57070767 C8.36334924,7.31459484 8.72119203,7.94714745 9.29074888,8.06113284 C9.36352559,8.07571236 9.45126035,7.9693481 9.37963427,7.94814151 C8.8900455,7.80135219 8.59692508,6.95308887 8.68782405,6.27083333" id="11"></path>
                        <path d="M4.94300512,1.93230553 C5.22798065,2.30007299 5.18442843,2.80382962 4.87441895,3.15432364 L4.57949843,3.48817232 L4.62785168,3.58333333 C5.46220241,3.15275332 6.06198845,2.41753246 6.27083333,1.55040524 L6.08496482,1.63143343 C5.81782169,1.6998991 5.56713925,1.59091933 5.33360335,1.45367392 C4.67174683,1.06486425 4.05069908,0.841565645 3.21772007,0.907204756 L3.13541667,1.04978924 C3.67930498,1.11197366 4.53285984,1.40279575 4.94300512,1.93230553" id="22"></path>
                        <path d="M10.8571041,5.71590426 C10.7199546,5.71590426 10.6087436,5.60490047 10.6087436,5.46800658 C10.6087436,5.33111269 10.7199546,5.2201089 10.8571041,5.2201089 C10.9942536,5.2201089 11.1054647,5.33111269 11.1054647,5.46800658 C11.1054647,5.60490047 10.9942536,5.71590426 10.8571041,5.71590426 Z M10.4041542,7.65701433 C10.1784898,8.00653064 9.76768977,8.20523714 9.18342647,8.24827943 C8.47725252,8.29941237 7.9597807,8.11882894 7.55741069,7.81720931 C7.26171251,7.59584897 7.11872688,7.29002219 7.05744732,6.98548992 C6.96244779,6.5149374 7.32980091,6.07707112 7.81063469,6.07707112 L10.2381482,6.07707112 C10.5166621,6.07707112 10.7394085,6.31202376 10.7180093,6.5890478 C10.6920708,6.9272372 10.6126344,7.33468261 10.4041542,7.65701433 Z M6.22936271,4.01460123 C6.09221323,4.01460123 5.98100218,3.90359744 5.98100218,3.76670355 C5.98100218,3.62980965 6.09221323,3.51880586 6.22936271,3.51880586 C6.3665122,3.51880586 6.47772325,3.62980965 6.47772325,3.76670355 C6.47772325,3.90359744 6.3665122,4.01460123 6.22936271,4.01460123 Z M12.5518568,4.88580301 L8.33945457,4.88580301 L8.33945457,4.88612664 L8.33880611,4.88580301 L8.3290792,4.88580301 L8.3290792,4.8819195 L8.16858512,4.81072173 C7.43550004,4.48677188 6.9614751,3.76023102 6.9614751,2.95957975 C6.9614751,2.15925211 7.43550004,1.43271125 8.16858512,1.10908503 L8.3290792,1.03788726 L8.3290792,1.02785485 L12.5518568,1.02785485 L12.5518568,1.19452235 L13.8854167,1.19452235 L13.8854167,0.447916667 L8.63320738,0.447916667 L8.99180627,0.772513765 L6.51533398,0.772513765 L6.45178481,1.21393993 C6.44043675,1.29355198 6.4187133,1.36928051 6.40152909,1.44695081 C6.20374851,2.3404828 5.63666942,3.09809178 4.8478167,3.54178332 C4.72947259,3.60845032 4.60594078,3.6673503 4.47916667,3.72074862 L4.81344828,3.76346728 C6.41417408,4.0870935 7.49483422,5.4337022 6.79611756,6.86995536 C6.84248252,7.26316122 6.99162853,7.69196596 7.38459586,8.00135262 C7.77983279,8.31203379 8.26909656,8.51041667 8.91204557,8.51041667 C9.00574818,8.51041667 9.10269309,8.50685678 9.20190761,8.499737 C9.86949814,8.45054582 10.3454685,8.21300417 10.6165251,7.79358459 C10.8713703,7.39940786 10.9543733,6.92044105 10.9725302,6.53791486 C10.9848509,6.28030839 11.194628,6.07707112 11.4527155,6.07707112 L12.5910887,6.07707112 C13.0294482,6.07707112 13.4172279,5.7929273 13.548217,5.37544948 L13.8854167,4.30230494 L13.8854167,4.18968301 L12.5518568,4.18968301 L12.5518568,4.88580301 L12.5518568,4.88580301 Z" id="33"></path>
                        <path d="M26.8540181,0.220944234 C26.8157914,0.130055383 26.706072,0.0419131735 26.539742,0.0117001214 C26.2990012,-0.0319964415 26.0497981,0.054897295 25.8478676,0.137046833 C25.5928283,0.240670111 25.3380808,0.344293389 25.0833333,0.447916667 L26.8607296,0.447916667 C26.8764872,0.372009495 26.8852414,0.295353238 26.8540181,0.220944234" id="44"></path>
                        <path d="M14.03939,3.2774534 L26.8143183,3.2774534 L26.8143183,3.13541667 L14.03939,3.13541667 L14.03939,3.2774534 Z M14.03939,2.23928865 L27.1689433,2.23928865 L27.1689433,2.07102522 L14.03939,2.07102522 L14.03939,2.23928865 Z M13.8854167,3.0529057 L13.8854167,4.03125 L27.0071902,4.03125 L27.0071902,3.14278372 L27.3229167,3.14278372 L27.3229167,1.79166667 L13.8854167,1.79166667 L13.8854167,3.0529057 L13.8854167,3.0529057 Z" id="55"></path>
                        <path d="M9.97712565,1.83301477 L12.09375,1.83301477 L12.09375,1.34375 L8.0625,1.34375 L8.0625,4.92708333 L12.09375,4.92708333 L12.09375,4.71869903 L9.97712565,4.71869903 C9.76036291,4.71869903 9.58520788,4.59663573 9.58520788,4.44793431 C9.58520788,4.373415 9.62949996,4.30597672 9.69929353,4.25708396 C9.77042929,4.20717963 9.86807319,4.17750678 9.97712565,4.17750678 L12.09375,4.17750678 L12.09375,2.66621479 L9.97712565,2.66621479 C9.76036291,2.66621479 9.58520788,2.47941074 9.58520788,2.24944618 C9.58520788,2.1344639 9.62949996,2.03027175 9.69929353,1.95474087 C9.77042929,1.88022157 9.86807319,1.83301477 9.97712565,1.83301477" id="66"></path>
                        <path d="M8.0625,4.92708333 L8.0625,1.79166667 C7.51262121,2.1120502 7.16666667,2.70841092 7.16666667,3.35904606 C7.16666667,4.01001014 7.51262121,4.60604193 8.0625,4.92708333" id="77"></path>
                        <path d="M5.97486839,6.71006183 C5.61179397,6.86516717 5.31693745,7.12821316 5.0977349,7.49160281 C4.42299196,8.60899433 4.62117952,10.4556975 4.99589301,11.6974898 C5.04147938,11.8475305 5.021111,12.0108659 4.94028411,12.1463457 C4.85945721,12.2815089 4.72948756,12.3752052 4.57462322,12.4097082 C3.96486511,12.5461376 3.32891908,12.6154602 2.68392044,12.6154602 C2.0644631,12.6154602 1.44532907,12.5505692 0.843330336,12.4233195 C0.574015114,12.3660255 0.380353868,12.1292524 0.382914728,11.8605087 C0.409774859,8.85463054 1.21578068,7.85372629 2.06898941,6.79362879 C2.52485311,6.22765257 2.99591227,5.64236732 3.36577615,4.76744659 C3.44498651,4.58132019 3.61698614,4.450272 3.8151737,4.42494868 C4.71558533,4.31131028 5.69068102,4.73136086 6.11777035,5.40970931 C6.27716099,5.6635756 6.35216835,5.94276521 6.33438643,6.21815632 C6.32048421,6.43277147 6.18243186,6.62111366 5.97486839,6.71006183 Z M3.17728782,4.19292376 C2.14852307,7.19500342 -0.0713068339,6.87751228 0.00176068122,12.2701134 C0.00434714193,12.4657361 0.139489714,12.6366685 0.332504345,12.6873151 C1.99074897,13.1231928 3.72400096,13.0744454 5.23061432,12.6262226 C5.4769747,12.552785 5.61082405,12.2944871 5.52126784,12.0583471 C4.786713,10.1245951 4.69748011,7.21051395 6.51511537,6.94588525 C6.51931837,6.93733863 6.52255145,6.92879201 6.52675445,6.92024539 C7.39483532,5.16977085 5.15043404,3.49653244 3.17728782,4.19292376 L3.17728782,4.19292376 Z" id="88"></path>
                        <path d="M2.37846468,11.4580336 C2.08519841,11.4580336 1.84658197,11.2239839 1.84658197,10.9363304 C1.84658197,10.6486769 2.08519841,10.414939 2.37846468,10.414939 C2.67173095,10.414939 2.91002965,10.6486769 2.91002965,10.9363304 C2.91002965,11.2239839 2.67173095,11.4580336 2.37846468,11.4580336 Z M3.88896072,4.92708333 C3.79650083,4.92708333 3.70435866,4.93300469 3.61316969,4.94453577 C3.50259909,4.95856005 3.40600868,5.03273289 3.36152626,5.13900575 C2.98501431,6.0303265 2.51191195,6.61934615 2.05437844,7.18904347 C1.24130327,8.20034971 0.47366371,9.15524718 0.447916667,12.0348988 C0.446656523,12.1897892 0.557862585,12.3259805 0.712280144,12.3590155 C1.88629842,12.607401 3.13561909,12.6017913 4.27564008,12.3462378 C4.36333401,12.3262922 4.43673001,12.2729999 4.48248336,12.1963339 C4.5291899,12.1187328 4.54062824,12.0246144 4.51489198,11.9389104 C4.11455016,10.6103439 3.93662046,8.77628004 4.63753638,7.6128883 C4.8790124,7.21179397 5.20595822,6.9207123 5.60947736,6.74805786 C5.73180403,6.69570055 5.81282558,6.58631119 5.82076887,6.46289755 C5.83538453,6.23757416 5.77533326,6.01599057 5.64283918,5.80437981 C5.31271604,5.27987183 4.60798734,4.92708333 3.88896072,4.92708333 L3.88896072,4.92708333 Z" id="99"></path>
                        <polyline id="00" points="6.36070934 0.895833333 8.0625 0.895833333 7.42928266 0.193935609 6.36070934 0.193935609 6.36070934 0 5.82291667 0 5.82291667 0.895833333 6.36070934 0.895833333"></polyline>
                        <polygon id="01" points="12.5416667 4.03125 13.8854167 4.03125 13.8854167 1.34375 12.5416667 1.34375"></polygon>
                        <path d="M26.5705541,1.55872703 L24.7189837,1.55872703 C24.6551253,1.55872703 24.6032605,1.4785105 24.6032605,1.37910105 C24.6032605,1.28018373 24.6551253,1.19947507 24.7189837,1.19947507 L26.5705541,1.19947507 C26.6347367,1.19947507 26.6862773,1.28018373 26.6862773,1.37910105 C26.6862773,1.4785105 26.6347367,1.55872703 26.5705541,1.55872703 Z M23.0836243,1.55872703 L21.2320539,1.55872703 C21.1678713,1.55872703 21.1163308,1.4785105 21.1163308,1.37910105 C21.1163308,1.28018373 21.1678713,1.19947507 21.2320539,1.19947507 L23.0836243,1.19947507 C23.1474828,1.19947507 23.1993475,1.28018373 23.1993475,1.37910105 C23.1993475,1.4785105 23.1474828,1.55872703 23.0836243,1.55872703 Z M19.5963704,1.55872703 L17.7448,1.55872703 C17.6809415,1.55872703 17.6290768,1.4785105 17.6290768,1.37910105 C17.6290768,1.28018373 17.6809415,1.19947507 17.7448,1.19947507 L19.5963704,1.19947507 C19.6602288,1.19947507 19.7120935,1.28018373 19.7120935,1.37910105 C19.7120935,1.4785105 19.6602288,1.55872703 19.5963704,1.55872703 Z M16.1091164,1.55872703 L14.257546,1.55872703 C14.1936876,1.55872703 14.1418229,1.4785105 14.1418229,1.37910105 C14.1418229,1.28018373 14.1936876,1.19947507 14.257546,1.19947507 L16.1091164,1.19947507 C16.1729749,1.19947507 16.2248396,1.28018373 16.2248396,1.37910105 C16.2248396,1.4785105 16.1729749,1.55872703 16.1091164,1.55872703 Z M27.0389573,0.895833333 L13.8854167,0.895833333 L13.8854167,1.89583333 L27.3229167,1.89583333 L27.3229167,1.32742782 C27.3229167,1.08923885 27.195524,0.895833333 27.0389573,0.895833333 L27.0389573,0.895833333 Z" id="02"></path>
                    </g>
                </g>
            </g>
        </g>
    </g>
</svg>