<?xml version="1.0" encoding="UTF-8"?>
<svg width="76px" height="73px" viewBox="0 0 76 73" version="1.1" xmlns="http://www.w3.org/2000/svg" xmlns:xlink="http://www.w3.org/1999/xlink">
    <title>headphones</title>
    <g id="desktop" stroke="none" stroke-width="1" fill="none" fill-rule="evenodd">
        <g id="about" transform="translate(-1365.000000, -1056.000000)" fill="#FBC02D" fill-rule="nonzero">
            <g id="4" transform="translate(1315.000000, 1056.000000)">
                <g id="headphones" transform="translate(50.000000, 0.000000)">
                    <path d="M68.5150391,44.8909033 L68.5150391,33.8797326 C68.5150391,22.9362058 62.6253359,12.7902199 53.1440391,7.4014061 C53.0629922,7.35526491 52.9783828,7.32181627 52.8925859,7.29762574 L52.8925859,5.29011044 C52.8925859,2.37306109 50.5336172,0 47.6340391,0 L28.9729219,0 C26.0733438,0 23.714375,2.37306109 23.714375,5.29011044 L23.714375,9.07846683 C23.714375,10.3387636 24.1145625,11.5058819 24.7918828,12.4611092 C17.0379531,17.202901 12.2615313,25.6913877 12.2615313,34.8587024 L12.2615313,43.1146913 C11.6067734,43.2357932 10.9667109,43.4004979 10.3443125,43.6046241 L10.3443125,33.879434 C10.3443125,26.3651387 13.2535391,19.3007575 18.5365781,13.9879497 C18.9765469,13.5456513 18.9765469,12.8282976 18.536875,12.3858498 C18.0970547,11.943402 17.3839609,11.9432527 16.9442891,12.3857005 C11.2358281,18.1266208 8.09192188,25.7599275 8.09192188,33.8797326 L8.09192188,44.555521 C3.28863281,47.0677523 0,52.1208851 0,57.9330332 C0,66.2409868 6.718875,73 14.9776406,73 C14.983875,73 14.9901094,72.9991041 14.9963438,72.9991041 C15.0027266,72.9991041 15.0086641,73 15.0150469,73 L20.3451406,73 C21.7940391,73 22.9729297,71.8140668 22.9729297,70.3565127 L22.9729297,45.5094044 C22.9729297,44.0518503 21.7940391,42.865917 20.3451406,42.865917 L15.0148984,42.865917 C15.0085156,42.865917 15.0024297,42.866813 14.9961953,42.866813 C14.9899609,42.8666637 14.9837266,42.865917 14.9774922,42.865917 C14.8222266,42.865917 14.6677031,42.8690529 14.513625,42.8738312 L14.513625,34.8588518 C14.513625,26.2694219 19.1046484,18.3335843 26.5119766,14.0721686 C27.3896875,14.6089893 28.41925,14.9185385 29.5194688,14.9185385 L47.0873438,14.9185385 C48.1902344,14.9185385 49.2223203,14.6073468 50.1013672,14.0679875 C50.1217031,14.081576 50.1415938,14.0956125 50.1631172,14.1080064 C57.5219063,18.3737525 62.0931875,26.3251198 62.0931875,34.8588518 L62.0931875,42.9047414 C61.7394609,42.8795056 61.3824688,42.8657677 61.0223594,42.8657677 C61.016125,42.8657677 61.0098906,42.8666637 61.0036563,42.8666637 C60.9974219,42.8666637 60.9913359,42.8657677 60.9849531,42.8657677 L55.6548594,42.8657677 C54.2059609,42.8657677 53.0270703,44.051701 53.0270703,45.509255 C53.0270703,46.135073 53.5313125,46.6421782 54.1532656,46.6421782 C54.7752188,46.6421782 55.2794609,46.135073 55.2794609,45.509255 C55.2794609,45.3045315 55.4513516,45.131614 55.6548594,45.131614 L60.9849531,45.131614 C61.1884609,45.131614 61.3603516,45.3045315 61.3603516,45.509255 L61.3603516,70.3563634 C61.3603516,70.5610869 61.1884609,70.7340044 60.9849531,70.7340044 L55.6548594,70.7340044 C55.4513516,70.7340044 55.2794609,70.5610869 55.2794609,70.3563634 L55.2794609,54.5580063 C55.2794609,53.9321884 54.7752188,53.4250832 54.1532656,53.4250832 C53.5313125,53.4250832 53.0270703,53.9321884 53.0270703,54.5580063 L53.0270703,70.3565127 C53.0270703,71.8140668 54.2059609,73 55.6548594,73 L60.9849531,73 C60.9911875,73 60.9974219,72.9991041 61.0036563,72.9991041 C61.0098906,72.9992534 61.016125,73 61.0223594,73 C69.2809766,73 76,66.2409868 76,57.9330332 C76,52.3692114 72.9862734,47.500494 68.5150391,44.8909033 Z M14.6396484,45.5094044 C14.6396484,45.3046808 14.8115391,45.1317633 15.0150469,45.1317633 L20.3451406,45.1317633 C20.5486484,45.1317633 20.7205391,45.3045315 20.7205391,45.5094044 L20.7205391,70.3565127 C20.7205391,70.5612362 20.5486484,70.7341537 20.3451406,70.7341537 L15.0150469,70.7341537 C14.8115391,70.7341537 14.6396484,70.5612362 14.6396484,70.3565127 L14.6396484,45.5094044 L14.6396484,45.5094044 Z M2.25239063,57.9330332 C2.25239063,51.8122319 6.54579688,46.683989 12.2615313,45.4283213 L12.2615313,45.5094044 C12.2615313,45.696657 12.3075469,45.8728596 12.3874063,46.0286048 L12.3874063,70.356662 C12.3874063,70.394441 12.3914141,70.4310255 12.3928984,70.4683566 C6.61140625,69.2636085 2.25239063,64.1010209 2.25239063,57.9330332 Z M50.6401953,9.07876548 C50.6401953,11.049547 49.0464219,12.6529909 47.0873437,12.6529909 L29.5196172,12.6529909 C27.5605391,12.6529909 25.9666172,11.049547 25.9666172,9.07876548 L25.9666172,5.29040909 C25.9666172,3.62290511 27.3151719,2.26614492 28.9727734,2.26614492 L47.6340391,2.26614492 C49.2916406,2.26614492 50.6401953,3.62275579 50.6401953,5.29040909 L50.6401953,9.07876548 L50.6401953,9.07876548 Z M60.7422578,21.5552551 C58.5585937,17.8358865 55.4792578,14.7042582 51.8144844,12.4621545 C52.3515312,11.7049312 52.713125,10.8143613 52.8403359,9.84972661 C61.1430391,14.943625 66.2625,24.0650972 66.2625,33.8798819 L66.2625,43.8186058 C65.6417344,43.5846147 65.0018203,43.3906425 64.3452812,43.2405716 L64.3452812,34.8591504 C64.3454297,30.1708167 63.0995937,25.570435 60.7422578,21.5552551 Z M63.6069531,70.4682072 C63.6084375,70.4308762 63.6124453,70.3941424 63.6124453,70.3565127 L63.6124453,45.5094044 C63.6124453,45.4716253 63.6084375,45.4350409 63.6069531,45.3977098 C69.3885938,46.6024579 73.7476094,51.7648961 73.7476094,57.9328839 C73.7476094,64.1008716 69.3885938,69.2636085 63.6069531,70.4682072 Z" id="Shape"></path>
                </g>
            </g>
        </g>
    </g>
</svg>