<?xml version="1.0" encoding="UTF-8"?>
<svg width="25px" height="25px" viewBox="0 0 25 25" version="1.1" xmlns="http://www.w3.org/2000/svg" xmlns:xlink="http://www.w3.org/1999/xlink">
    <title>011-instagram</title>
    <g id="desktop" stroke="none" stroke-width="1" fill="none" fill-rule="evenodd">
        <g id="contacts" transform="translate(-1507.000000, -632.000000)" fill="#FFFFFF" fill-rule="nonzero">
            <g id="Group" transform="translate(1325.000000, 632.000000)">
                <g id="011-instagram" transform="translate(182.000000, 0.000000)">
                    <path d="M17.7299159,8.54331235 C17.622417,8.25201369 17.4509181,7.98834741 17.2280764,7.77192359 C17.0116526,7.54908189 16.7481646,7.37758296 16.4566876,7.27008412 C16.2202972,7.17827334 15.8651767,7.06899179 15.2110918,7.03922014 C14.503525,7.00695267 14.2913797,7 12.5000891,7 C10.7086203,7 10.496475,7.00677441 9.78908642,7.03904187 C9.13500154,7.06899179 8.77970278,7.17827334 8.54349061,7.27008412 C8.25201369,7.37758296 7.98834741,7.54908189 7.77210185,7.77192359 C7.54926015,7.98834741 7.37776122,8.25183543 7.27008412,8.54331235 C7.17827334,8.77970278 7.06899179,9.13500154 7.03922014,9.78908642 C7.00695267,10.496475 7,10.7086203 7,12.5000891 C7,14.2913797 7.00695267,14.503525 7.03922014,15.2110918 C7.06899179,15.8651767 7.17827334,16.2202972 7.27008412,16.4566877 C7.37776122,16.7481646 7.54908189,17.0116526 7.77192359,17.2280764 C7.98834741,17.4509181 8.25183538,17.6224171 8.54331231,17.7299159 C8.77970278,17.8219049 9.13500154,17.9311865 9.78908642,17.9609581 C10.496475,17.9932256 10.7084421,18 12.4999109,18 C14.2915579,18 14.5037032,17.9932256 15.2109136,17.9609581 C15.8649985,17.9311865 16.2202972,17.8219049 16.4566876,17.7299159 C17.0417808,17.5042218 17.5042218,17.0417808 17.7299159,16.4566877 C17.8217267,16.2202972 17.9310082,15.8651767 17.9609581,15.2110918 C17.9932256,14.503525 18,14.2913797 18,12.5000891 C18,10.7086203 17.9932256,10.496475 17.9609581,9.78908642 C17.9311865,9.13500154 17.8219049,8.77970278 17.7299159,8.54331235 L17.7299159,8.54331235 Z M12.5000906,16 C10.5670263,16 9,14.4331143 9,12.5 C9,10.5668857 10.5670263,9 12.5000906,9 C14.4329737,9 16,10.5668857 16,12.5 C16,14.4331143 14.4329737,16 12.5000906,16 Z M16,10 C15.4477413,10 15,9.55225866 15,9 C15,8.44774134 15.4477413,8 16,8 C16.5522587,8 17,8.44774134 17,9 C16.9997786,9.55225866 16.5522587,10 16,10 Z" id="Shape"></path>
                    <path d="M15,12.5 C15,13.8807398 13.8807398,15 12.5,15 C11.1192602,15 10,13.8807398 10,12.5 C10,11.1192602 11.1192602,10 12.5,10 C13.8807398,10 15,11.1192602 15,12.5 Z" id="Path"></path>
                    <path d="M23.1969833,0 L1.80301665,0 C0.807189941,0 0,0.807189941 0,1.80301665 L0,23.1969833 C0,24.1928101 0.807189941,25 1.80301665,25 L23.1969833,25 C24.1928101,25 25,24.1928101 25,23.1969833 L25,1.80301665 C25,0.807189941 24.1928101,0 23.1969833,0 Z M19.6344375,15.4592514 C19.5997238,16.2233353 19.4782257,16.7449951 19.3008423,17.2016144 C18.9279556,18.1657791 18.1657791,18.9279556 17.2016144,19.3008423 C16.7451858,19.4782257 16.2233353,19.5995331 15.4594421,19.6344375 C14.6940231,19.669342 14.449501,19.6777344 12.5001907,19.6777344 C10.5506897,19.6777344 10.3063583,19.669342 9.54074858,19.6344375 C8.77685547,19.5995331 8.25500488,19.4782257 7.79857637,19.3008423 C7.31945039,19.1205979 6.88571929,18.8381195 6.52713774,18.4728623 C6.16207124,18.1144714 5.87959287,17.6805496 5.69934844,17.2016144 C5.52196504,16.7451858 5.40046689,16.2233353 5.36575317,15.4594421 C5.33046724,14.6938324 5.32226562,14.4493103 5.32226562,12.5 C5.32226562,10.5506897 5.33046724,10.3061676 5.36556245,9.54074858 C5.40027617,8.77666475 5.52158354,8.25500488 5.69896699,7.79838564 C5.87921143,7.31945039 6.16188047,6.88552856 6.52713774,6.52713774 C6.88552856,6.16188047 7.31945039,5.87940215 7.79838564,5.69915771 C8.25500488,5.52177432 8.77666475,5.40046689 9.54074858,5.36556245 C10.3061676,5.33065796 10.5506897,5.32226563 12.5,5.32226563 C14.4493103,5.32226563 14.6938324,5.33065796 15.4592514,5.36575317 C16.2233353,5.40046689 16.7449951,5.52177432 17.2016144,5.69896699 C17.6805496,5.87921143 18.1144714,6.16188047 18.473053,6.52713774 C18.8381195,6.88571929 19.1207886,7.31945039 19.3008423,7.79838564 C19.4784165,8.25500488 19.5997238,8.77666475 19.6346283,9.54074858 C19.6695328,10.3061676 19.6777344,10.5506897 19.6777344,12.5 C19.6777344,14.4493103 19.6695328,14.6938324 19.6344375,15.4592514 L19.6344375,15.4592514 Z" id="Shape"></path>
                </g>
            </g>
        </g>
    </g>
</svg>