<?xml version="1.0" encoding="UTF-8"?>
<svg width="18px" height="18px" viewBox="0 0 18 18" version="1.1" xmlns="http://www.w3.org/2000/svg" xmlns:xlink="http://www.w3.org/1999/xlink">
    <title>011-instagram</title>
    <g id="desktop" stroke="none" stroke-width="1" fill="none" fill-rule="evenodd">
        <g id="menu" transform="translate(-1695.000000, -790.000000)" fill="#FFFFFF" fill-rule="nonzero">
            <g id="Group" transform="translate(1564.000000, 790.000000)">
                <g id="011-instagram" transform="translate(131.000000, 0.000000)">
                    <path d="M12.4011199,6.5364391 C12.3219616,6.32193735 12.1956761,6.12778309 12.0315835,5.96841646 C11.8722169,5.80432394 11.6781939,5.67803836 11.4635609,5.59888013 C11.2894916,5.53127401 11.0279938,5.45080305 10.5463495,5.42888028 C10.0253229,5.40511969 9.86910684,5.4 8.55006563,5.4 C7.23089316,5.4 7.07467707,5.40498843 6.55378182,5.42874902 C6.0721375,5.45080305 5.81050841,5.53127401 5.63657036,5.59888013 C5.42193735,5.67803836 5.22778309,5.80432394 5.06854773,5.96841646 C4.9044552,6.12778309 4.77816963,6.32180609 4.69888013,6.5364391 C4.63127401,6.71050841 4.55080305,6.9721375 4.52888028,7.45378182 C4.50511969,7.97467707 4.5,8.13089316 4.5,9.45006563 C4.5,10.7691068 4.50511969,10.9253229 4.52888028,11.4463495 C4.55080305,11.9279938 4.63127401,12.1894916 4.69888013,12.3635609 C4.77816963,12.5781939 4.90432394,12.7722169 5.06841646,12.9315835 C5.22778309,13.0956761 5.42180605,13.2219617 5.63643906,13.3011199 C5.81050841,13.3688573 6.0721375,13.4493282 6.55378182,13.471251 C7.07467707,13.4950116 7.23076189,13.5 8.54993437,13.5 C9.86923811,13.5 10.0254542,13.4950116 10.5462182,13.471251 C11.0278625,13.4493282 11.2894916,13.3688573 11.4635609,13.3011199 C11.8944022,13.134927 12.234927,12.7944022 12.4011199,12.3635609 C12.468726,12.1894916 12.549197,11.9279938 12.571251,11.4463495 C12.5950116,10.9253229 12.6,10.7691068 12.6,9.45006563 C12.6,8.13089316 12.5950116,7.97467707 12.571251,7.45378182 C12.5493282,6.9721375 12.4688573,6.71050841 12.4011199,6.5364391 L12.4011199,6.5364391 Z M8.55006563,11.9866733 C7.14897818,11.9866733 6.01319548,10.8510218 6.01319548,9.44993437 C6.01319548,8.04884691 7.14897818,6.91319548 8.55006563,6.91319548 C9.95102182,6.91319548 11.0868045,8.04884691 11.0868045,9.44993437 C11.0868045,10.8510218 9.95102182,11.9866733 8.55006563,11.9866733 Z M11.1870979,7.40573555 C10.8597005,7.40573555 10.5942645,7.14029952 10.5942645,6.81290213 C10.5942645,6.48550475 10.8597005,6.22006872 11.1870979,6.22006872 C11.5144953,6.22006872 11.7799313,6.48550475 11.7799313,6.81290213 C11.7798,7.14029952 11.5144953,7.40573555 11.1870979,7.40573555 Z" id="Shape"></path>
                    <path d="M10.8,9 C10.8,9.99413265 9.99413265,10.8 9,10.8 C8.00586735,10.8 7.2,9.99413265 7.2,9 C7.2,8.00586735 8.00586735,7.2 9,7.2 C9.99413265,7.2 10.8,8.00586735 10.8,9 Z" id="Path"></path>
                    <path d="M16.701828,0 L1.29817199,0 C0.581176758,0 0,0.581176758 0,1.29817199 L0,16.701828 C0,17.4188232 0.581176758,18 1.29817199,18 L16.701828,18 C17.4188232,18 18,17.4188232 18,16.701828 L18,1.29817199 C18,0.581176758 17.4188232,0 16.701828,0 Z M14.136795,11.130661 C14.1118012,11.6808014 14.0243225,12.0563965 13.8966064,12.3851623 C13.628128,13.079361 13.079361,13.628128 12.3851623,13.8966064 C12.0565338,14.0243225 11.6808014,14.1116638 11.1307983,14.136795 C10.5796967,14.1619263 10.4036407,14.1679688 9.00013732,14.1679688 C7.59649658,14.1679688 7.42057801,14.1619263 6.86933898,14.136795 C6.31933594,14.1116638 5.94360352,14.0243225 5.61497498,13.8966064 C5.27000428,13.7668305 4.95771789,13.5634461 4.69953918,13.3004608 C4.43669129,13.0424194 4.23330687,12.7299957 4.10353088,12.3851623 C3.97581483,12.0565338 3.88833616,11.6808014 3.86334229,11.1307983 C3.83793641,10.5795593 3.83203125,10.4035034 3.83203125,9 C3.83203125,7.59649658 3.83793641,7.42044066 3.86320496,6.86933898 C3.88819884,6.31919862 3.97554015,5.94360352 4.10325623,5.61483766 C4.23303223,5.27000428 4.43655394,4.95758057 4.69953918,4.69953918 C4.95758057,4.43655394 5.27000428,4.23316955 5.61483766,4.10339355 C5.94360352,3.97567751 6.31919862,3.88833616 6.86933898,3.86320496 C7.42044066,3.83807373 7.59649658,3.83203125 9,3.83203125 C10.4035034,3.83203125 10.5795593,3.83807373 11.130661,3.86334229 C11.6808014,3.88833616 12.0563965,3.97567751 12.3851623,4.10325623 C12.7299957,4.23303223 13.0424194,4.43655394 13.3005981,4.69953918 C13.5634461,4.95771789 13.7669678,5.27000428 13.8966064,5.61483766 C14.0244598,5.94360352 14.1118012,6.31919862 14.1369324,6.86933898 C14.1620636,7.42044066 14.1679687,7.59649658 14.1679687,9 C14.1679687,10.4035034 14.1620636,10.5795593 14.136795,11.130661 L14.136795,11.130661 Z" id="Shape"></path>
                </g>
            </g>
        </g>
    </g>
</svg>