<?xml version="1.0" encoding="UTF-8"?>
<svg width="71px" height="71px" viewBox="0 0 71 71" version="1.1" xmlns="http://www.w3.org/2000/svg" xmlns:xlink="http://www.w3.org/1999/xlink">
    <title>ipad</title>
    <g id="desktop" stroke="none" stroke-width="1" fill="none" fill-rule="evenodd">
        <g id="about" transform="translate(-757.000000, -1058.000000)" fill="#FBC02D" fill-rule="nonzero">
            <g id="2" transform="translate(702.000000, 1058.000000)">
                <g id="ipad" transform="translate(55.000000, 0.000000)">
                    <path d="M70.8797581,57.8913387 L68.7096774,53.5523226 L68.7096774,40.0806452 C68.7096774,35.8217903 65.7837903,32.2420161 61.8387097,31.2205323 L61.8387097,5.72580645 C61.8387097,2.56859677 59.2701129,0 56.1129032,0 L14.8870968,0 C11.7298871,0 9.16129032,2.56859677 9.16129032,5.72580645 L9.16129032,31.2205323 C5.21620968,32.2420161 2.29032258,35.8217903 2.29032258,40.0806452 L2.29032258,53.5523226 L0.120241935,57.8913387 C0.0412258065,58.049371 0,58.2257258 0,58.4032258 L0,69.8548387 C0,70.4881129 0.513032258,71 1.14516129,71 L17.1774194,71 C17.6114355,71 18.0076613,70.7549355 18.2023387,70.3667258 C18.7130806,69.3452419 19.7402903,68.7096774 20.8831613,68.7096774 L21.1877742,68.7096774 C22.6009032,68.7096774 23.9292903,68.16 24.9267258,67.1602742 L27.9579677,64.1290323 L43.0420323,64.1290323 L46.0732742,67.1602742 C47.0718548,68.16 48.4002419,68.7096774 49.813371,68.7096774 L50.1179839,68.7096774 C51.2608548,68.7096774 52.2880645,69.3452419 52.7988065,70.3667258 C52.9923387,70.7549355 53.3885645,71 53.8225806,71 L69.8548387,71 C70.4869677,71 71,70.4881129 71,69.8548387 L71,58.4032258 C71,58.2257258 70.9587742,58.049371 70.8797581,57.8913387 Z M11.4516129,5.72580645 C11.4516129,3.83170968 12.993,2.29032258 14.8870968,2.29032258 L56.1129032,2.29032258 C58.007,2.29032258 59.5483871,3.83170968 59.5483871,5.72580645 L59.5483871,30.9193548 L57.2580645,30.9193548 L57.2580645,8.01612903 C57.2580645,7.384 56.7450323,6.87096774 56.1129032,6.87096774 L14.8870968,6.87096774 C14.2549677,6.87096774 13.7419355,7.384 13.7419355,8.01612903 L13.7419355,30.9193548 L11.4516129,30.9193548 L11.4516129,5.72580645 Z M54.9677419,39.9180323 L54.9677419,52.6774194 L16.0322581,52.6774194 L16.0322581,39.9180323 C18.0019355,39.4061452 19.4677419,37.6288548 19.4677419,35.5 C19.4677419,33.3722903 18.0019355,31.5938548 16.0322581,31.0819677 L16.0322581,9.16129032 L54.9677419,9.16129032 L54.9677419,31.0819677 C52.9980645,31.5938548 51.5322581,33.3722903 51.5322581,35.5 C51.5322581,37.6288548 52.9980645,39.4061452 54.9677419,39.9180323 Z M23.3063226,65.5410161 C22.7406129,66.107871 21.9882419,66.4193548 21.186629,66.4193548 L20.8820161,66.4193548 C19.1138871,66.4193548 17.5026452,67.2816613 16.5246774,68.7096774 L2.29032258,68.7096774 L2.29032258,58.6734839 L4.46040323,54.3344677 C4.53941935,54.1764355 4.58064516,54.0000806 4.58064516,53.8225806 L4.58064516,40.0806452 C4.58064516,36.2913065 7.66227419,33.2096774 11.4516129,33.2096774 L14.8870968,33.2096774 C16.1502097,33.2096774 17.1774194,34.2368871 17.1774194,35.5 C17.1774194,36.7631129 16.1502097,37.7903226 14.8870968,37.7903226 L12.5967742,37.7903226 C10.7026774,37.7903226 9.16129032,39.3317097 9.16129032,41.2258065 L9.16129032,58.4032258 C9.16129032,61.5604355 11.7298871,64.1290323 14.8870968,64.1290323 L24.7194516,64.1290323 L23.3063226,65.5410161 Z M14.8870968,61.8387097 C12.993,61.8387097 11.4516129,60.2973226 11.4516129,58.4032258 L11.4516129,41.2258065 C11.4516129,40.5936774 11.9657903,40.0806452 12.5967742,40.0806452 L13.7419355,40.0806452 L13.7419355,53.8225806 C13.7419355,54.4558548 14.2549677,54.9677419 14.8870968,54.9677419 L56.1129032,54.9677419 C56.7450323,54.9677419 57.2580645,54.4558548 57.2580645,53.8225806 L57.2580645,40.0806452 L58.4032258,40.0806452 C59.0342097,40.0806452 59.5483871,40.5936774 59.5483871,41.2258065 L59.5483871,58.4032258 C59.5483871,60.2973226 58.007,61.8387097 56.1129032,61.8387097 L14.8870968,61.8387097 Z M68.7096774,68.7096774 L54.4741774,68.7096774 C53.4962097,67.2816613 51.8849677,66.4193548 50.1168387,66.4193548 L49.8122258,66.4193548 C49.0106129,66.4193548 48.2582419,66.107871 47.6925323,65.5410161 L46.2805484,64.1290323 L56.1129032,64.1290323 C59.2701129,64.1290323 61.8387097,61.5604355 61.8387097,58.4032258 L61.8387097,41.2258065 C61.8387097,39.3317097 60.2973226,37.7903226 58.4032258,37.7903226 L56.1129032,37.7903226 C54.8497903,37.7903226 53.8225806,36.7631129 53.8225806,35.5 C53.8225806,34.2368871 54.8497903,33.2096774 56.1129032,33.2096774 L59.5483871,33.2096774 C63.3377258,33.2096774 66.4193548,36.2913065 66.4193548,40.0806452 L66.4193548,53.8225806 C66.4193548,54.0000806 66.4605806,54.1764355 66.5395968,54.3344677 L68.7096774,58.6734839 L68.7096774,68.7096774 Z" id="Shape"></path>
                    <polygon id="Path" points="32 57 39 57 39 59 32 59"></polygon>
                    <path d="M47.875,24 L23.125,24 C22.504,24 22,24.5152 22,25.15 L22,45.85 C22,46.48595 22.504,47 23.125,47 L47.875,47 C48.496,47 49,46.48595 49,45.85 L49,25.15 C49,24.5152 48.496,24 47.875,24 Z M46.75,44.7 L24.25,44.7 L24.25,26.3 L46.75,26.3 L46.75,44.7 Z" id="Shape"></path>
                    <path d="M29.553,41.8261667 C29.7408333,41.9416667 29.9531667,42 30.1666667,42 C30.3451667,42 30.5236667,41.9591667 30.6881667,41.8775 L42.3548333,36.0441687 C42.7503333,35.8458354 43,35.4421689 43,35 C43,34.5578359 42.7503333,34.1541694 42.3548333,33.9558361 L30.6881667,28.1225048 C30.3265,27.9428381 29.8971667,27.9615048 29.553,28.1738381 C29.21,28.387338 29,28.7618379 29,29.1666711 L29,40.8333337 C29,41.2381669 29.21,41.6126668 29.553,41.8261667 L29.553,41.8261667 Z M31.3333333,31.0543371 L39.2246667,35.0000024 L31.3333333,38.9456677 L31.3333333,31.0543371 Z" id="Shape"></path>
                    <path d="M30.6847249,17.8419207 L30,18.4742379 L31.6522201,20 L32.336945,19.3676828 C34.0265562,17.8073914 36.9734438,17.8073914 38.663055,19.3676828 L39.3477799,20 L41,18.4742379 L40.3152751,17.8419207 C39.0299554,16.653898 37.3193117,16 35.5,16 C33.6806883,16 31.9700446,16.653898 30.6847249,17.8419207 L30.6847249,17.8419207 Z" id="Path"></path>
                    <path d="M28.8509148,16.8183556 C30.7613858,15.0805184 33.3001168,14.1244954 36,14.1244954 C38.6998832,14.1244954 41.2386142,15.0805184 43.1490852,16.8183556 L43.3487738,17 L45,15.4979817 L44.8003114,15.3163374 C42.4495913,13.1769705 39.3246399,12 36,12 C32.6753601,12 29.5504087,13.1769705 27.1996886,15.3163374 L27,15.4979817 L28.6512262,17 L28.8509148,16.8183556 Z" id="Path"></path>
                </g>
            </g>
        </g>
    </g>
</svg>