<?xml version="1.0" encoding="UTF-8"?>
<svg width="44px" height="43px" viewBox="0 0 44 43" version="1.1" xmlns="http://www.w3.org/2000/svg" xmlns:xlink="http://www.w3.org/1999/xlink">
    <title>full auto</title>
    <g id="desktop" stroke="none" stroke-width="1" fill="none" fill-rule="evenodd" opacity="0.28">
        <g id="rentals-main" transform="translate(-1466.000000, -542.000000)">
            <g id="auto" transform="translate(1460.000000, 383.000000)">
                <g id="full-auto" opacity="0.261021205" transform="translate(6.000000, 159.000000)">
                    <rect id="Rectangle-Copy-2" stroke="#FFFFFF" stroke-width="2" x="1" y="1" width="41" height="41" rx="4"></rect>
                    <g id="icon2" transform="translate(24.049020, 21.429690) rotate(-36.000000) translate(-24.049020, -21.429690) translate(4.049020, 15.929690)" fill="#FFFFFF">
                        <path d="M18.8014297,6.48491791 C19.0579475,7.38360828 19.4451845,8.24128487 19.9509461,9.03117186 C19.8805588,9.07792331 19.8080321,9.12424975 19.7365751,9.17036368 C19.2136981,8.35455088 18.8142663,7.4681859 18.5509023,6.5393196 L18.1247276,6.63175996 C18.3996445,7.61035281 18.8187591,8.54389425 19.3690208,9.40284589 C19.3206696,9.43259681 19.2746719,9.46362277 19.2256789,9.4933737 C19.2019312,9.50782414 19.1760441,9.52291211 19.1516546,9.53757507 C18.585775,8.65397267 18.1555354,7.69323038 17.8742002,6.68616165 L17.4480255,6.77881452 C17.7398439,7.83135966 18.1876269,8.8356658 18.777682,9.75900693 C18.7049413,9.80193326 18.6319867,9.84570962 18.5579624,9.8901235 C17.9535731,8.94298163 17.4953069,7.91296219 17.1974981,6.83321621 L16.8464174,6.90929357 C17.1893683,8.16733258 17.7406997,9.36204462 18.4856496,10.439878 C19.1336833,9.99807685 19.7817171,9.55606314 20.4297508,9.11426194 C19.8574529,8.28612376 19.428497,7.3714954 19.1527243,6.40862804 L18.8014297,6.48491791" id="111"></path>
                        <path d="M14.8073625,5.2941324 L14.5523043,5.2941324 C14.5181803,5.57097471 14.5821939,5.9005827 14.9687666,6.18996573 C15.0903178,6.12016361 14.6947782,5.88472934 14.8073625,5.2941324" id="222"></path>
                        <path d="M12.4490692,3.02223136 L18.6537625,3.02223136 C18.7954576,3.02223136 18.9107908,2.92173724 18.9107908,2.79827303 C18.9107908,2.67480882 18.7954576,2.5743147 18.6537625,2.5743147 L12.4490692,2.5743147 C12.3073741,2.5743147 12.1920408,2.67480882 12.1920408,2.79827303 C12.1920408,2.92173724 12.3073741,3.02223136 12.4490692,3.02223136" id="333"></path>
                        <path d="M18.9034471,5.67529157 L19.0750806,4.98007504 L19.0750806,5.80449874 L16.9210586,6.19384588 L18.9034471,5.67529157 Z M16.9210586,4.17269202 L19.2575239,4.17269202 L17.1255627,4.34353021 L16.9210586,4.58468817 L16.9210586,4.17269202 Z M16.5162418,6.00337855 C16.5162418,6.16472573 16.3818912,6.29608995 16.2159936,6.29608995 L14.5898878,6.29608995 C14.3774418,6.29608995 14.232502,6.08513066 14.3130241,5.8929377 L14.4925995,5.45764544 C14.5391479,5.34698888 14.6481285,5.27472778 14.7707869,5.27364926 L16.2148905,5.27062939 C16.2159936,5.27062939 16.2159936,5.27062939 16.216876,5.27062939 C16.3818912,5.27062939 16.5162418,5.4017779 16.5162418,5.56312508 L16.5162418,6.00337855 Z M13.1235027,5.55535971 L11.4190809,8.41819364 L13.1235027,5.26264831 L14.3044204,5.26264831 L13.1235027,5.55535971 Z M12.2867344,3.98891154 L13.132327,3.98891154 L13.132327,3.53679431 L12.2867344,3.53679431 L12.2867344,3.98891154 Z M12.8250193,2.52492316 L18.6404817,2.52492316 C18.8643994,2.52492316 19.0468427,2.70309531 19.0468427,2.92225137 C19.0468427,3.14140744 18.8643994,3.31957959 18.6404817,3.31957959 L12.8250193,3.31957959 C12.600881,3.31957959 12.4186583,3.14140744 12.4186583,2.92225137 C12.4186583,2.70309531 12.600881,2.52492316 12.8250193,2.52492316 Z M14.1680843,1.58639163 L14.2252219,1.45826298 C14.3752357,1.12219493 14.7242385,0.915549739 15.0983906,0.94035579 L18.8282196,1.18733777 C19.0936117,1.20394704 19.2998807,1.41986753 19.2998807,1.67936039 L19.2998807,1.72077571 C19.2998807,1.95654104 19.1042009,2.14765548 18.8630758,2.14765548 L14.5433394,2.14765548 C14.2483858,2.14765548 14.0496175,1.8510614 14.1680843,1.58639163 Z M13.7268671,4.10690206 C13.6128125,4.10690206 13.5203775,4.01652176 13.5203775,3.90500238 C13.5203775,3.79348301 13.6128125,3.7031027 13.7268671,3.7031027 C13.8409218,3.7031027 13.9333568,3.79348301 13.9333568,3.90500238 C13.9333568,4.01652176 13.8409218,4.10690206 13.7268671,4.10690206 Z M15.9746478,4.13753214 C16.1107633,4.13753214 16.2212882,4.24560024 16.2212882,4.37869009 C16.2212882,4.51199565 16.1107633,4.61984805 15.9746478,4.61984805 C15.8383117,4.61984805 15.7280074,4.51199565 15.7280074,4.37869009 C15.7280074,4.24560024 15.8383117,4.13753214 15.9746478,4.13753214 Z M17.4604465,6.36295843 L17.9021049,6.28012779 L18.1619818,6.23137851 L18.6036401,6.14854787 L18.863517,6.09979859 L19.2277417,6.03163588 L19.4382023,5.9921619 L19.4446,5.81744102 L19.2533323,5.70786299 C19.2458316,5.18370036 19.2469347,5.35540137 19.2469347,4.93865972 L19.6168953,4.65026242 L19.6168953,3.90500238 L16.6417681,3.90500238 L16.6417681,4.42463521 C16.6417681,4.74064273 16.3788027,4.99776283 16.0556112,4.99776283 L13.2649128,4.99776283 C13.2192468,4.99776283 13.1821846,4.96152443 13.1821846,4.91687354 C13.1821846,4.87222265 13.2192468,4.83598424 13.2649128,4.83598424 L16.0556112,4.83598424 C16.2874708,4.83598424 16.4763117,4.65134095 16.4763117,4.42463521 L16.4763117,3.90500238 L15.7963961,3.90500238 C15.716977,3.90500238 15.6525593,3.84201658 15.6525593,3.76436286 L15.6525593,3.7615587 C15.6525593,3.68368927 15.716977,3.62070347 15.7963961,3.62070347 L19.6168953,3.62070347 L19.6168953,2.14765548 L19.5566691,1.70632349 C19.5039437,1.3238789 19.1909001,1.02512777 18.797555,0.9858695 L14.3922226,0.537203543 L13.7407655,0.537203543 C13.7403243,0.545400325 13.739883,0.551224354 13.7396624,0.558774021 C13.7354709,0.641820364 13.7314999,0.688196894 13.7314999,0.760889407 C13.7314999,1.08897639 13.4592689,1.3551561 13.1235027,1.3551561 C12.9692973,1.3551561 13.1102662,1.3551561 12.7094204,1.35666603 C12.6937572,1.35688173 12.6789764,1.35688173 12.6615484,1.35688173 L12.6066168,1.54281926 L12.8607579,1.54281926 L12.8607579,2.18195254 L12.3979211,2.18195254 L12.0272987,2.60559675 L12.0272987,4.513937 C12.3180608,4.43434193 12.5452877,4.48071846 12.7008167,4.58835515 C12.8402413,4.68434378 12.9196604,4.83016021 12.9322351,4.98007504 C12.9417212,5.0907316 12.9141452,5.20440802 12.846639,5.30061235 L11.1064786,8.55667611 L13.1764488,9.04762021 L13.2293948,8.81509045 L13.0749688,8.56702994 L13.7356915,7.19946159 L14.0972689,7.1953632 L14.1153588,7.06205764 L13.9578443,6.74669725 L14.0540296,6.51503031 L16.6483864,6.51503031 L16.8367861,6.47987042 L17.2007902,6.41149201 L17.4604465,6.36295843 L17.4604465,6.36295843 Z" id="444"></path>
                        <path d="M11.4161564,2.83344873 C11.4161564,2.83344873 0.757225254,2.49001888 0.797588951,2.49001888 L11.4161564,2.49001888 L11.4161564,2.83344873 Z M11.6309809,2.26883068 L0.797588951,2.26883068 C0.59038864,2.26883068 0.42624294,2.44873349 0.439473263,2.66138784 C0.397764109,4.04548627 0.559443139,5.29419631 0.930116422,6.40244376 C0.944243716,6.62985937 1.15368645,6.78992674 1.36963223,6.73826234 L11.6309809,4.30888244 L11.6309809,2.26883068 L11.6309809,2.26883068 Z" id="555"></path>
                        <polygon id="666" points="11.4000134 1.76438392 12.2958467 1.76438392 12.2958467 1.31646725 11.4000134 1.31646725"></polygon>
                        <path d="M13.1106271,0.184180462 C13.285374,0.184180462 13.4268232,0.325629583 13.4268232,0.50037652 C13.4268232,0.674857074 13.285374,0.816306195 13.1106271,0.816306195 C12.9361466,0.816306195 12.7946974,0.674857074 12.7946974,0.50037652 C12.7946974,0.325629583 12.9361466,0.184180462 13.1106271,0.184180462 Z M12.9729073,0.978533153 C13.0168605,0.991319514 13.0626783,1.00037652 13.1106271,1.00037652 C13.3868658,1.00037652 13.6106271,0.776348816 13.6106271,0.50037652 C13.6106271,0.481996126 13.6071641,0.464681262 13.6052995,0.447100015 C13.5783948,0.196434059 13.3687518,0.000376520018 13.1106271,0.000376520018 C12.8346548,0.000376520018 12.6106271,0.224137841 12.6106271,0.50037652 C12.6106271,0.728133579 12.7643298,0.918330702 12.9729073,0.978533153 L12.9729073,0.978533153 Z" id="777"></path>
                        <polygon id="888" points="19.9329498 4.15502735 20.3808664 4.15502735 20.3808664 1.91544401 19.9329498 1.91544401"></polygon>
                        <path d="M31.0739657,2.82816839 L31.0739657,3.86223549 L30.9135165,3.86636787 L30.9135165,3.0984746 L30.5114819,3.0984746 L30.5114819,3.8775496 L30.3498931,3.8814389 L30.3498931,3.0984746 L29.9480864,3.0984746 L29.9480864,3.89164831 L29.7874093,3.89578069 L29.7874093,3.0984746 L29.3856026,3.0984746 L29.3856026,3.90574702 L29.2237859,3.91085172 L29.2237859,3.0984746 L28.8219792,3.0984746 L28.8219792,3.92106113 L28.6613021,3.92519351 L28.6613021,3.0984746 L28.2594954,3.0984746 L28.2594954,3.93515983 L28.0988183,3.93929221 L28.0988183,3.0984746 L27.695872,3.0984746 L27.695872,3.95047394 L27.5351949,3.95460632 L27.5351949,3.0984746 L27.1333882,3.0984746 L27.1333882,3.96457265 L26.972939,3.96870503 L26.972939,3.0984746 L26.5709044,3.0984746 L26.5709044,3.97988676 L26.4093156,3.98377606 L26.4093156,3.0984746 L26.007281,3.0984746 L26.007281,3.99398546 L25.8468318,3.99811784 L25.8468318,3.0984746 L25.4447972,3.0984746 L25.4447972,4.00808417 L25.2832084,4.01318887 L25.2832084,3.0984746 L24.8811738,3.0984746 L24.8811738,4.02339828 L24.7207246,4.02728758 L24.7207246,3.0984746 L24.31869,3.0984746 L24.31869,4.03749698 L24.1582408,4.04162936 L24.1582408,3.0984746 L23.7552945,3.0984746 L23.7552945,4.0528111 L23.5946174,4.05670039 L23.5946174,3.0984746 L23.1928107,3.0984746 L23.1928107,4.0669098 L23.0321336,4.07104218 L23.0321336,3.0984746 L22.630099,3.0984746 L22.630099,4.08222391 L22.4685102,4.08611321 L22.4685102,3.0984746 L22.0667035,3.0984746 L22.0667035,4.09632262 L21.9060264,4.100455 L21.9060264,3.0984746 L21.5042197,3.0984746 L21.5042197,4.11042132 L21.342403,4.11552603 L21.342403,3.0984746 L20.9405963,3.0984746 L20.9405963,4.12573543 L20.7801471,4.12986781 L20.7801471,1.79653209 L20.9405963,1.80066447 L20.9405963,2.82816839 L21.342403,2.82816839 L21.342403,1.81087388 L21.5042197,1.81597858 L21.5042197,2.82816839 L21.9060264,2.82816839 L21.9060264,1.82594491 L22.0667035,1.83007729 L22.0667035,2.82816839 L22.4685102,2.82816839 L22.4685102,1.84028669 L22.630099,1.84417599 L22.630099,2.82816839 L23.0321336,2.82816839 L23.0321336,1.85535772 L23.1928107,1.8594901 L23.1928107,2.82816839 L23.5946174,2.82816839 L23.5946174,1.86969951 L23.7552945,1.87358881 L23.7552945,2.82816839 L24.1582408,2.82816839 L24.1582408,1.88477054 L24.31869,1.88890292 L24.31869,2.82816839 L24.7207246,2.82816839 L24.7207246,1.89886925 L24.8811738,1.90300162 L24.8811738,2.82816839 L25.2832084,2.82816839 L25.2832084,1.91321103 L25.4447972,1.91831574 L25.4447972,2.82816839 L25.8468318,2.82816839 L25.8468318,1.92828206 L26.007281,1.93241444 L26.007281,2.82816839 L26.4093156,2.82816839 L26.4093156,1.94262385 L26.5709044,1.94651315 L26.5709044,2.82816839 L26.972939,2.82816839 L26.972939,1.95769488 L27.1333882,1.96182726 L27.1333882,2.82816839 L27.5351949,2.82816839 L27.5351949,1.97179358 L27.695872,1.97592596 L27.695872,2.82816839 L28.0988183,2.82816839 L28.0988183,1.98710769 L28.2594954,1.99124007 L28.2594954,2.82816839 L28.6613021,2.82816839 L28.6613021,2.0012064 L28.8219792,2.00533878 L28.8219792,2.82816839 L29.2237859,2.82816839 L29.2237859,2.01554819 L29.3856026,2.02040981 L29.3856026,2.82816839 L29.7874093,2.82816839 L29.7874093,2.03061922 L29.9480864,2.03475159 L29.9480864,2.82816839 L30.3498931,2.82816839 L30.3498931,2.04471792 L30.5114819,2.0488503 L30.5114819,2.82816839 L30.9135165,2.82816839 L30.9135165,2.06003203 L31.0739657,2.06416441 L31.0739657,2.82816839 Z M31.5108707,2.23796741 C31.5108707,2.07388766 31.3887105,1.93873455 31.2346428,1.93387293 L31.0739657,1.92925439 L30.9135165,1.92463584 L30.5114819,1.91175254 L30.3498931,1.907134 L29.9480864,1.89546611 L29.7874093,1.89084757 L29.3856026,1.87917967 L29.2237859,1.87334573 L28.8219792,1.86167783 L28.6613021,1.85705929 L28.2594954,1.8453914 L28.0988183,1.84077286 L27.695872,1.82788956 L27.5351949,1.82327102 L27.1333882,1.81160312 L26.972939,1.80698458 L26.5709044,1.79410128 L26.4093156,1.78948274 L26.007281,1.77781484 L25.8468318,1.7731963 L25.4447972,1.76152841 L25.2832084,1.75569446 L24.8811738,1.74402657 L24.7207246,1.73940803 L24.31869,1.72774013 L24.1582408,1.72312159 L23.7552945,1.71023829 L23.5946174,1.70561975 L23.1928107,1.69395186 L23.0321336,1.68933332 L22.630099,1.67645002 L22.4685102,1.67183147 L22.0667035,1.66016358 L21.9060264,1.65554504 L21.5042197,1.64387714 L21.342403,1.6380432 L20.9405963,1.6263753 L20.7801471,1.62175676 L20.6992388,1.61956903 C20.5385617,1.61470741 20.4063734,1.75229133 20.4063734,1.92342044 L20.4063734,4.00395179 C20.4063734,4.17410858 20.5385617,4.31144941 20.6992388,4.30683087 L20.7801471,4.30464314 L20.9405963,4.3000246 L21.342403,4.28835671 L21.5042197,4.28252276 L21.9060264,4.27085487 L22.0667035,4.26623632 L22.4685102,4.25456843 L22.630099,4.24970681 L23.0321336,4.23706659 L23.1928107,4.23244805 L23.5946174,4.22078015 L23.7552945,4.21591853 L24.1582408,4.20327831 L24.31869,4.19865977 L24.7207246,4.18699188 L24.8811738,4.18237334 L25.2832084,4.17070544 L25.4447972,4.16487149 L25.8468318,4.1532036 L26.007281,4.14858506 L26.4093156,4.13691717 L26.5709044,4.13205554 L26.972939,4.11941532 L27.1333882,4.11479678 L27.5351949,4.10312889 L27.695872,4.09826727 L28.0988183,4.08562705 L28.2594954,4.08100851 L28.6613021,4.06934061 L28.8219792,4.06472207 L29.2237859,4.05305418 L29.3856026,4.04722023 L29.7874093,4.03555234 L29.9480864,4.03093379 L30.3498931,4.0192659 L30.5114819,4.01440428 L30.9135165,4.00176406 L31.0739657,3.99714552 L31.2346428,3.9922839 C31.3887105,3.98766535 31.5108707,3.85251225 31.5108707,3.68843249 L31.5108707,3.28929328 L37.4272068,3.28929328 L37.4272068,2.6373497 L31.5108707,2.6373497 L31.5108707,2.23796741 L31.5108707,2.23796741 Z" id="999"></path>
                        <path d="M38.9794278,2.88503045 L37.3709858,2.88503045 C37.3090442,2.88503045 37.2590831,2.83339716 37.2590831,2.7693824 C37.2590831,2.70536765 37.3090442,2.65373435 37.3709858,2.65373435 L38.9794278,2.65373435 C39.0411144,2.65373435 39.0913305,2.70536765 39.0913305,2.7693824 C39.0913305,2.83339716 39.0411144,2.88503045 38.9794278,2.88503045 Z M38.9794278,3.33787555 L37.3709858,3.33787555 C37.3090442,3.33787555 37.2590831,3.28597882 37.2590831,3.2222275 C37.2590831,3.15821275 37.3090442,3.10631602 37.3709858,3.10631602 L38.9794278,3.10631602 C39.0411144,3.10631602 39.0913305,3.15821275 39.0913305,3.2222275 C39.0913305,3.28597882 39.0411144,3.33787555 38.9794278,3.33787555 Z M39.1040756,2.49066797 L37.246338,2.49066797 C37.1408078,2.49066797 37.0554151,2.57891876 37.0554151,2.68798093 L37.0554151,3.29361844 C37.0554151,3.40241718 37.1408078,3.49066797 37.246338,3.49066797 L39.1040756,3.49066797 C39.2096057,3.49066797 39.2949985,3.40241718 39.2949985,3.29361844 L39.2949985,2.68798093 C39.2949985,2.57891876 39.2096057,2.49066797 39.1040756,2.49066797 L39.1040756,2.49066797 Z" id="000"></path>
                        <path d="M33.6461818,1.62936548 L32.4284575,1.62936548 L33.2132734,0.727907127 L33.4191623,0.72645238 L33.4191623,0.907568408 C33.4191623,1.01279512 33.4998924,1.10420174 33.6144858,1.12796261 L33.6461818,1.13450897 L33.6461818,1.62936548 Z M33.6461818,2.30703523 L31.926197,2.30703523 L31.926197,2.20617275 L31.9730638,2.15234711 L33.6461818,2.15234711 L33.6461818,2.30703523 Z M33.9059811,0.299968989 L33.2568893,0.299968989 L31.6663978,2.12640411 L31.6663978,2.53955232 L33.9059811,2.53955232 L33.9059811,0.299968989 L33.9059811,0.299968989 Z" id="011"></path>
                    </g>
                </g>
            </g>
        </g>
    </g>
</svg>