<?xml version="1.0" encoding="UTF-8"?>
<svg width="14px" height="19px" viewBox="0 0 14 19" version="1.1" xmlns="http://www.w3.org/2000/svg" xmlns:xlink="http://www.w3.org/1999/xlink">
    <title>pin</title>
    <g id="desktop" stroke="none" stroke-width="1" fill="none" fill-rule="evenodd">
        <g id="contacts" transform="translate(-999.000000, -903.000000)" fill="#000000" fill-rule="nonzero">
            <g id="Group-2" transform="translate(973.000000, 880.000000)">
                <g id="pin" transform="translate(33.000000, 32.500000) scale(-1, 1) translate(-33.000000, -32.500000) translate(26.000000, 23.000000)">
                    <path d="M7,0 C3.14017915,0 0,3.08683579 0,6.88105135 C0,11.5897915 6.26431426,18.5024972 6.53102299,18.7944741 C6.78153667,19.0687498 7.21891634,19.0682674 7.46897701,18.7944741 C7.73568574,18.5024972 14,11.5897915 14,6.88105135 C14,3.08683579 10.8597831,0 7,0 Z M7,10.3431005 C5.05802823,10.3431005 3.47816122,8.79003415 3.47816122,6.88105135 C3.47816122,4.97206856 5.05806598,3.41903932 7,3.41903932 C8.94193402,3.41903932 10.521801,4.97210567 10.521801,6.88108846 C10.521801,8.79007126 8.94193402,10.3431005 7,10.3431005 Z" id="Shape"></path>
                </g>
            </g>
        </g>
    </g>
</svg>