<?xml version="1.0" encoding="UTF-8"?>
<svg width="25px" height="25px" viewBox="0 0 25 25" version="1.1" xmlns="http://www.w3.org/2000/svg" xmlns:xlink="http://www.w3.org/1999/xlink">
    <title>012-messenger</title>
    <g id="desktop" stroke="none" stroke-width="1" fill="none" fill-rule="evenodd">
        <g id="contacts" transform="translate(-1397.000000, -632.000000)" fill="#FFFFFF" fill-rule="nonzero">
            <g id="Group" transform="translate(1325.000000, 632.000000)">
                <g id="012-messenger" transform="translate(72.000000, 0.000000)">
                    <path d="M23.1969833,0 L1.80301665,0 C0.807189941,0 0,0.807189941 0,1.80301665 L0,23.1969833 C0,24.1928101 0.807189941,25 1.80301665,25 L23.1969833,25 C24.1928101,25 25,24.1928101 25,23.1969833 L25,1.80301665 C25,0.807189941 24.1928101,0 23.1969833,0 Z M12.5976563,19.1911697 C11.8238449,19.1911697 11.0769272,19.0818787 10.37426,18.879509 L7.85350801,20.3125 L7.85350801,17.6166534 C6.165123,16.3318634 5.08689883,14.3751145 5.08689883,12.1835708 C5.08689883,8.313179 8.44955444,5.17578125 12.5976563,5.17578125 C16.7459488,5.17578125 20.1084137,8.313179 20.1084137,12.1835708 C20.1084137,16.0535813 16.7459488,19.1911697 12.5976563,19.1911697 Z" id="Shape"></path>
                    <polygon id="Path" points="11.7017372 10 7.5 13.75 11.3238262 11.981409 13.321808 13.75 17.5 10 13.7185157 11.7375689"></polygon>
                </g>
            </g>
        </g>
    </g>
</svg>