<?xml version="1.0" encoding="UTF-8"?>
<svg width="20px" height="16px" viewBox="0 0 20 16" version="1.1" xmlns="http://www.w3.org/2000/svg" xmlns:xlink="http://www.w3.org/1999/xlink">
    <title>Path</title>
    <g id="desktop" stroke="none" stroke-width="1" fill="none" fill-rule="evenodd">
        <g id="iPhone-XR-Home" transform="translate(-71.000000, -2271.000000)" fill="#FFFFFF" fill-rule="nonzero">
            <g id="3" transform="translate(0.000000, 1814.000000)">
                <g id="Group-4" transform="translate(27.000000, 457.000000)">
                    <g id="Group-7">
                        <path d="M63.6803235,7.25275584 L56.4576196,0.307090923 C56.2514425,0.108826519 55.976648,0 55.6836423,0 C55.3903114,0 55.1156796,0.108982879 54.9095024,0.307090923 L54.2537356,0.937846924 C54.047721,1.13579861 53.934226,1.40020327 53.934226,1.68212024 C53.934226,1.96388085 54.047721,2.23719803 54.2537356,2.43514971 L58.4673589,6.49597373 L45.0804788,6.49597373 C44.4769066,6.49597373 44,6.95035572 44,7.53092018 L44,8.42264092 C44,9.00320538 44.4769066,9.50340083 45.0804788,9.50340083 L58.5151634,9.50340083 L54.2538982,13.586897 C54.0478836,13.7851614 53.9343886,14.0423735 53.9343886,14.3242905 C53.9343886,14.6058948 54.0478836,14.8668595 54.2538982,15.0649676 L54.909665,15.6936909 C55.1158422,15.8919553 55.390474,16 55.6838049,16 C55.9768106,16 56.2516051,15.890548 56.4577822,15.6922836 L63.6804861,8.74677508 C63.8871511,8.54788523 64.0008087,8.28238605 64,8.00015636 C64.0006461,7.71698851 63.8871511,7.45133297 63.6803235,7.25275584 Z" id="Path"></path>
                    </g>
                </g>
            </g>
        </g>
    </g>
</svg>