<?xml version="1.0" encoding="UTF-8"?>
<svg width="20px" height="16px" viewBox="0 0 20 16" version="1.1" xmlns="http://www.w3.org/2000/svg" xmlns:xlink="http://www.w3.org/1999/xlink">
    <title>Path Copy</title>
    <g id="desktop" stroke="none" stroke-width="1" fill="none" fill-rule="evenodd">
        <g id="iPhone-XR-Home" transform="translate(-27.000000, -2271.000000)" fill="#FFFFFF" fill-rule="nonzero">
            <g id="3" transform="translate(0.000000, 1814.000000)">
                <g id="Group-4" transform="translate(27.000000, 457.000000)">
                    <g id="Group-7">
                        <path d="M19.6803235,7.25275584 L12.4576196,0.307090923 C12.2514425,0.108826519 11.976648,0 11.6836423,0 C11.3903114,0 11.1156796,0.108982879 10.9095024,0.307090923 L10.2537356,0.937846924 C10.047721,1.13579861 9.93422603,1.40020327 9.93422603,1.68212024 C9.93422603,1.96388085 10.047721,2.23719803 10.2537356,2.43514971 L14.4673589,6.49597373 L1.08047879,6.49597373 C0.476906589,6.49597373 0,6.95035572 0,7.53092018 L0,8.42264092 C0,9.00320538 0.476906589,9.50340083 1.08047879,9.50340083 L14.5151634,9.50340083 L10.2538982,13.586897 C10.0478836,13.7851614 9.93438863,14.0423735 9.93438863,14.3242905 C9.93438863,14.6058948 10.0478836,14.8668595 10.2538982,15.0649676 L10.909665,15.6936909 C11.1158422,15.8919553 11.390474,16 11.6838049,16 C11.9768106,16 12.2516051,15.890548 12.4577822,15.6922836 L19.6804861,8.74677508 C19.8871511,8.54788523 20.0008087,8.28238605 20,8.00015636 C20.0006461,7.71698851 19.8871511,7.45133297 19.6803235,7.25275584 Z" id="Path-Copy" transform="translate(10.000000, 8.000000) rotate(-180.000000) translate(-10.000000, -8.000000) "></path>
                    </g>
                </g>
            </g>
        </g>
    </g>
</svg>