<?xml version="1.0" encoding="UTF-8"?>
<svg width="36px" height="25px" viewBox="0 0 36 25" version="1.1" xmlns="http://www.w3.org/2000/svg" xmlns:xlink="http://www.w3.org/1999/xlink">
    <title>quote</title>
    <g id="desktop" stroke="none" stroke-width="1" fill="none" fill-rule="evenodd">
        <g id="about" transform="translate(-387.000000, -2206.000000)" fill="#000000" fill-rule="nonzero">
            <g id="Group-3" transform="translate(387.000000, 2206.000000)">
                <g id="quote" transform="translate(18.000000, 12.500000) rotate(-180.000000) translate(-18.000000, -12.500000) ">
                    <path d="M8.5,0 C3.8131,0 -1.13686838e-13,3.75921788 -1.13686838e-13,8.37988827 C-1.13686838e-13,10.5894553 0.864733333,12.6743715 2.434825,14.2506285 C3.95476667,15.7765363 5.96969167,16.6599162 8.12805417,16.7514665 C8.13825417,16.8844274 8.14583333,17.0676676 8.14583333,17.3184358 C8.14583333,18.3458101 7.35335,21.484986 6.8537625,23.2223464 L6.34255833,25 L12.546425,25 L12.9620042,24.3398743 C13.1268333,24.0780028 17,17.8175978 17,8.37988827 C17,3.75921788 13.1869,0 8.5,0 Z M10.9217208,22.2067039 L10.0625125,22.2067039 C10.4695917,20.6296089 10.9791667,18.4328911 10.9791667,17.3184358 C10.9791667,16.4340782 10.9125833,15.7236034 10.5873875,15.1305866 C10.29775,14.6023743 9.69198333,13.9732542 8.449425,13.9665503 L8.3875875,13.965014 C5.32496667,13.9064944 2.83333333,11.4010475 2.83333333,8.37988827 C2.83333333,5.29944134 5.3754,2.79329609 8.5,2.79329609 C11.6246,2.79329609 14.1666667,5.29944134 14.1666667,8.37988827 C14.1666667,15.3156425 11.8407833,20.4493017 10.9217208,22.2067039 Z" id="Shape"></path>
                    <path d="M27.5,0 C22.8131,0 19,3.75921788 19,8.37988827 C19,10.5894553 19.8647333,12.6743715 21.434825,14.2506285 C22.9547667,15.7765363 24.9696917,16.6599162 27.1280542,16.7514665 C27.1382542,16.8844274 27.1458333,17.0676676 27.1458333,17.3184358 C27.1458333,18.3458101 26.35335,21.484986 25.8537625,23.2223464 L25.3425583,25 L31.546425,25 L31.9620042,24.3398743 C32.1268333,24.0780028 36,17.8175978 36,8.37988827 C36,3.75921788 32.1869,0 27.5,0 Z M29.9217208,22.2067039 L29.0625125,22.2067039 C29.4695917,20.6296089 29.9791667,18.4328911 29.9791667,17.3184358 C29.9791667,16.4340782 29.9125833,15.7236034 29.5873875,15.1305866 C29.29775,14.6023743 28.6919833,13.9732542 27.449425,13.9665503 L27.3875875,13.965014 C24.3249667,13.9064944 21.8333333,11.4010475 21.8333333,8.37988827 C21.8333333,5.29944134 24.3754,2.79329609 27.5,2.79329609 C30.6246,2.79329609 33.1666667,5.29944134 33.1666667,8.37988827 C33.1666667,15.3156425 30.8407833,20.4493017 29.9217208,22.2067039 Z" id="Shape"></path>
                </g>
            </g>
        </g>
    </g>
</svg>