<?xml version="1.0" encoding="utf-8"?>
<!-- Generator: Adobe Illustrator 24.0.0, SVG Export Plug-In . SVG Version: 6.00 Build 0)  -->
<svg version="1.1" id="Layer_1" xmlns="http://www.w3.org/2000/svg" xmlns:xlink="http://www.w3.org/1999/xlink" x="0px" y="0px"
	 viewBox="0 0 1260.8 387" style="enable-background:new 0 0 1260.8 387;" xml:space="preserve">
<style type="text/css">
	.st0{enable-background:new    ;}
	.st1{fill:#1D1D1D;}
</style>
<g id="Layer_2_1_">
</g>
<g id="Layer_1_1_">
	<g id="desktop">
		<g id="home" transform="translate(-335.000000, -4151.000000)">
			<g id="_x35_" transform="translate(0.000000, 3871.000000)">
				<g id="Group-2" transform="translate(335.000000, 280.000000)">
					<g class="st0">
						<path class="st1" d="M197.6,363l-70.2-128.4h-26.6V363H24.4V39.4h123.4c15.5,0,30.7,1.6,45.5,4.8c14.8,3.2,28,8.6,39.8,16.2
							c11.7,7.6,21.1,17.7,28.1,30.2c7,12.5,10.5,28,10.5,46.6c0,21.9-5.9,40.4-17.8,55.3c-11.9,14.9-28.3,25.6-49.4,32L289,363
							H197.6z M194.4,138.6c0-7.6-1.6-13.8-4.8-18.5c-3.2-4.7-7.3-8.4-12.4-11c-5.1-2.6-10.7-4.3-17-5.3c-6.3-0.9-12.3-1.4-18.1-1.4
							h-41.8v75.4h37.2c6.4,0,13-0.5,19.8-1.6c6.7-1.1,12.9-3,18.4-5.7s10-6.7,13.5-11.9C192.6,153.5,194.4,146.8,194.4,138.6z"/>
						<path class="st1" d="M530.7,251.9c0,3,0,6.1,0,9.1c0,3-0.2,5.9-0.5,8.7h-165c0.6,6.4,2.5,12.2,5.7,17.4
							c3.2,5.2,7.3,9.7,12.3,13.5c5,3.8,10.7,6.8,16.9,8.9c6.2,2.1,12.7,3.2,19.4,3.2c11.9,0,21.9-2.2,30.2-6.6
							c8.2-4.4,14.9-10.1,20.1-17.1l52.1,32.9c-10.7,15.5-24.8,27.5-42.3,35.9c-17.5,8.4-37.9,12.6-61,12.6c-17.1,0-33.2-2.7-48.4-8
							c-15.2-5.3-28.6-13.1-40-23.3c-11.4-10.2-20.4-22.8-27-37.7c-6.6-14.9-9.8-32-9.8-51.2c0-18.6,3.2-35.4,9.6-50.5
							c6.4-15.1,15.1-27.9,26-38.4c11-10.5,23.9-18.7,38.8-24.4c14.9-5.8,31.1-8.7,48.4-8.7c16.8,0,32.1,2.8,46.2,8.5
							c14,5.6,26,13.8,36.1,24.4c10.1,10.7,17.9,23.6,23.5,38.8C527.9,215.1,530.7,232.5,530.7,251.9z M461.7,223.2
							c0-11.9-3.7-22.1-11.2-30.6c-7.5-8.5-18.7-12.8-33.6-12.8c-7.3,0-14,1.1-20.1,3.4c-6.1,2.3-11.4,5.4-16,9.4
							c-4.6,4-8.2,8.6-11,13.9c-2.7,5.3-4.3,10.9-4.6,16.7H461.7z"/>
						<path class="st1" d="M645.9,191.2v87.2c0,10.7,2.1,18.7,6.2,24.1s11.5,8,22.2,8c3.7,0,7.5-0.3,11.7-0.9
							c4.1-0.6,7.5-1.5,10.3-2.7l0.9,54.8c-5.2,1.8-11.7,3.4-19.7,4.8c-7.9,1.4-15.8,2.1-23.8,2.1c-15.2,0-28-1.9-38.4-5.7
							c-10.4-3.8-18.7-9.3-24.9-16.5c-6.2-7.2-10.7-15.7-13.5-25.7c-2.7-9.9-4.1-21-4.1-33.2v-96.2h-36.6v-55.8h36.1V75.5h73.6v59.9
							h53.5v55.8H645.9z"/>
						<path class="st1" d="M718.5,166.5c13.4-12.8,29-22.4,46.8-28.8c17.8-6.4,36-9.6,54.6-9.6c19.2,0,35.4,2.4,48.7,7.1
							c13.3,4.7,24,12,32.2,21.9c8.2,9.9,14.2,22.4,18.1,37.5c3.8,15.1,5.7,33,5.7,53.7V363h-68.5v-24.2h-1.4
							c-5.8,9.4-14.6,16.8-26.3,21.9c-11.7,5.2-24.4,7.8-38.2,7.8c-9.1,0-18.6-1.2-28.3-3.7c-9.8-2.4-18.7-6.4-26.7-11.9
							c-8.1-5.5-14.7-12.8-19.9-21.9c-5.2-9.1-7.8-20.4-7.8-33.8c0-16.5,4.5-29.7,13.5-39.8c9-10.1,20.6-17.8,34.7-23.3
							s29.9-9.1,47.3-11s34.3-2.7,50.7-2.7v-3.7c0-11.3-4-19.6-11.9-24.9c-7.9-5.3-17.7-8-29.2-8c-10.7,0-21,2.3-30.8,6.9
							c-9.9,4.6-18.4,10.1-25.4,16.5L718.5,166.5z M856.1,263.8h-9.6c-8.2,0-16.5,0.4-24.9,1.1c-8.4,0.8-15.8,2.2-22.4,4.3
							c-6.6,2.1-12,5.3-16.2,9.4c-4.3,4.1-6.4,9.5-6.4,16.2c0,4.3,1,7.9,3,11c2,3,4.5,5.5,7.5,7.3c3,1.8,6.5,3.1,10.5,3.9
							c4,0.8,7.8,1.1,11.4,1.1c15.2,0,26.9-4.2,35-12.6c8.1-8.4,12.1-19.7,12.1-34V263.8z"/>
						<path class="st1" d="M1048.9,62.8c0,5.8-1.1,11.2-3.4,16.2c-2.3,5-5.3,9.4-9.1,13c-3.8,3.7-8.4,6.6-13.7,8.7
							c-5.3,2.1-10.9,3.2-16.7,3.2c-12.2,0-22.4-4-30.6-12.1c-8.2-8.1-12.3-17.7-12.3-29c0-5.5,1.1-10.7,3.2-15.8
							c2.1-5,5.2-9.4,9.1-13c4-3.7,8.5-6.6,13.7-8.9c5.2-2.3,10.8-3.4,16.9-3.4c5.8,0,11.3,1.1,16.7,3.2c5.3,2.1,9.9,5,13.7,8.7
							c3.8,3.7,6.9,8,9.1,13C1047.8,51.6,1048.9,57,1048.9,62.8z M968.5,363V135.4h74.9V363H968.5z"/>
						<path class="st1" d="M1091,363V17.5h76.3V363H1091z"/>
					</g>
				</g>
			</g>
		</g>
	</g>
</g>
</svg>
