<?xml version="1.0" encoding="UTF-8"?>
<svg width="38px" height="38px" viewBox="0 0 38 38" version="1.1" xmlns="http://www.w3.org/2000/svg" xmlns:xlink="http://www.w3.org/1999/xlink">
    <title>virtual-reality</title>
    <g id="desktop" stroke="none" stroke-width="1" fill="none" fill-rule="evenodd">
        <g id="gun-detail-open-copy-5" transform="translate(-1774.000000, -814.000000)" fill="#FFFFFF" fill-rule="nonzero">
            <g id="virtual-reality" transform="translate(1774.000000, 814.000000)">
                <path d="M37.9433917,17.5451899 L37.9433174,17.5451899 C37.6101438,13.1372941 35.7579094,9.09054424 32.8418055,5.98978014 C32.6312433,5.76586369 32.2789209,5.75502783 32.054925,5.96565921 C31.830929,6.17621638 31.8201671,6.52853039 32.0308035,6.75252106 C32.2810733,7.01866769 32.5193195,7.2871893 32.7389365,7.55044142 C32.7455421,7.55845699 32.7522961,7.5662499 32.7591986,7.5739686 C34.4455513,9.6033181 35.684209,11.9988604 36.3477358,14.6360574 C35.3897782,13.4413663 34.0295482,12.3489479 32.3054175,11.4101613 C31.08435,10.7453885 29.7268661,10.1829626 28.2679977,9.73075083 C27.3591738,6.79890746 25.7674515,3.5787262 23.3613875,1.65031352 C23.9870621,1.80780464 24.6321081,2.00693219 25.2407122,2.23426268 L25.2407122,2.2343369 C26.8708803,2.83201643 28.5912258,3.7719163 30.1522209,5.01811487 C30.3923969,5.20996903 30.7427153,5.1707818 30.9344998,4.93053734 C31.1263585,4.69036709 31.0871703,4.34005697 30.8469202,4.14820281 C30.7174063,4.04481679 30.5605052,3.92302465 30.499051,3.87663824 C30.2127845,3.65851082 29.8638762,3.41106719 29.808137,3.37529399 L29.8114027,3.3773721 C27.8575611,2.02147897 25.6536723,1.03994266 23.3364495,0.49852056 C23.3325901,0.497481505 23.3286564,0.496516668 23.3247228,0.495626049 C23.3172266,0.493844811 23.3098788,0.49221201 23.3026794,0.490727645 C23.1367977,0.452282593 22.9597088,0.414060197 22.7619125,0.373982344 C22.7565686,0.372943288 22.751299,0.371904233 22.7459552,0.371013614 L22.711146,0.364482408 C22.5512019,0.332568563 22.3827967,0.301693772 22.2104579,0.272526002 C22.2059304,0.271635383 22.2013288,0.270818982 22.1967272,0.270002581 L22.1398746,0.2607253 C21.9699108,0.23237393 21.7941578,0.205581144 21.6215221,0.181682868 L21.6123188,0.180421158 C21.603264,0.178936793 21.5942834,0.177600865 21.5851543,0.17656181 C21.5658571,0.174261044 21.5466341,0.171366532 21.5273369,0.168546239 L21.4768673,0.161347069 C21.469668,0.160382232 21.4621718,0.159565831 21.4546013,0.158823649 C21.2752858,0.135444901 21.0953765,0.114515356 20.9196235,0.0967771951 C20.9173227,0.0965545404 20.9149477,0.0963318857 20.9126469,0.0961092309 C20.9110882,0.0959607944 20.9094554,0.0958123579 20.9077483,0.0955897032 C20.8892676,0.093734247 20.8707126,0.0921756639 20.8520833,0.0906170807 C20.8392433,0.089503807 20.826329,0.0885389698 20.8134147,0.0872030414 C20.8099264,0.0868319502 20.8063638,0.0864608589 20.8028755,0.086163986 L20.780461,0.0845311845 C20.6359547,0.071097682 20.4910772,0.0590001079 20.3455318,0.0486095535 C20.3403364,0.0482384623 20.3343988,0.0479415893 20.3281643,0.0476447163 C16.4327274,-0.228744032 12.4117103,0.693120801 8.87022854,2.92434393 C-1.98236889,9.82545331 -3.02530839,25.0596389 6.56391613,33.3664419 C13.7044001,39.5520131 24.3094738,39.5370211 31.4327387,33.3664419 C36.0508558,29.3658558 38.4028135,23.4701067 37.9433917,17.5451899 Z M26.9788705,9.36700721 C24.5103131,8.73489041 21.7995017,8.40135361 18.9973997,8.40135361 C16.1958172,8.40135361 13.4854511,8.73481619 11.0172648,9.36685877 C14.7728712,-1.56073889 23.1782125,-1.69232784 26.9788705,9.36700721 Z M10.192829,3.42910222 L10.1927548,3.42895378 C11.4698584,2.69649391 12.9932982,2.0659357 14.6335603,1.65157523 C12.2295744,3.5790973 10.6374811,6.79764575 9.72836023,9.73075083 C6.79674429,10.639479 3.57730317,12.2308667 1.64891903,14.6356863 C2.86605287,9.81090654 6.01624672,5.80252751 10.192829,3.42910222 Z M9.36438533,11.0197733 C8.73225355,13.4879011 8.39878308,16.1982772 8.39878308,18.9999418 C8.39878308,21.797747 8.73136291,24.5046349 9.36178763,26.970165 C-1.52999797,23.2242217 -1.74672038,14.8380794 9.36438533,11.0197733 Z M1.64669243,23.3530646 C2.50066779,24.4215847 3.6738634,25.4096522 5.13807564,26.2762244 C6.48635623,27.0740705 8.03629258,27.7423316 9.72702427,28.2657187 C10.6380748,31.2064683 12.2258634,34.4066106 14.6118138,36.3316835 C8.33710625,34.7186983 3.25325863,29.738654 1.64669243,23.3530646 Z M11.0163742,28.6300561 C12.9871379,29.1346659 15.1166583,29.4518005 17.3209924,29.5582295 C17.6289312,29.572702 17.8889981,29.3361685 17.9038421,29.0291276 C17.9186861,28.7220867 17.6817759,28.4611353 17.3747277,28.4462917 C14.9517415,28.3293237 12.6682888,27.9505138 10.6211527,27.3661193 C9.89676542,24.8177616 9.51223158,21.9651834 9.51223158,18.9998676 C9.51223158,16.0315088 9.89750762,13.1759618 10.6233793,10.6256744 C13.1736528,9.89989421 16.0291933,9.51455308 18.9975481,9.51455308 C21.9663483,9.51455308 24.8224082,9.89989421 27.3730529,10.6258971 C28.8547811,15.832307 28.8559686,22.1627523 27.3731271,27.3734669 C25.0934597,28.0216149 22.564042,28.4005733 19.9301224,28.4733071 C19.6227774,28.481768 19.3805233,28.7377467 19.3890586,29.0450845 C19.3973713,29.3471528 19.644895,29.5863582 19.9451891,29.5863582 C19.9503845,29.5863582 19.9555799,29.586284 19.9608495,29.5861355 C22.4202036,29.5183743 24.7962086,29.1905523 26.9795384,28.6315404 C23.2344712,39.5328648 14.8269034,39.7233089 11.0163742,28.6300561 Z M23.3843957,36.3317577 C25.7735376,34.4041614 27.3596933,31.2007535 28.2685915,28.2675742 C29.8597941,27.774765 31.3278658,27.1528161 32.6241182,26.4126375 C34.1985471,25.5136319 35.4502675,24.4793264 36.3490717,23.3559591 C34.7419118,29.7402126 29.6585837,34.7190694 23.3843957,36.3317577 Z M32.0719956,25.4458707 C31.0343257,26.0383549 29.8782749,26.5514257 28.632121,26.9790712 C29.9191701,21.9522694 29.9205803,16.0524384 28.6318242,11.019996 C37.8596715,14.1914158 39.8389706,21.0105141 32.0719956,25.4458707 Z" id="Shape"></path>
                <path d="M15.2850357,18.800197 C15.621685,18.5429765 15.8165513,18.0794048 15.8165513,17.5110602 C15.8165513,16.5225863 15.1927575,16 14.0124827,16 C12.5291298,16 12.1333475,16.905582 12.1333475,17.4407059 C12.1333475,17.8213059 12.2758121,17.9434876 12.7198211,17.9434876 C13.1700501,17.9434876 13.2645436,17.6956105 13.2645436,17.487662 C13.2645436,17.1418798 13.5133454,16.966593 14.0040473,16.966593 C14.4990095,16.966593 14.7101502,17.1715069 14.7101502,17.6518487 C14.7101502,18.2706631 14.4390244,18.3918066 13.9706465,18.3918066 C13.4210672,18.3918066 13.4124614,19.2957117 13.9706465,19.2957117 C14.5775695,19.2957117 14.8602833,19.528336 14.8602833,20.0278436 C14.8602833,20.6014587 14.7967196,21.0257407 13.9790819,21.0257407 C13.3471083,21.0257407 13.1228459,20.7239599 13.1228459,20.4655416 C13.1228459,20.0844624 12.8264139,20.0331142 12.5363724,20.0331142 C12.1553307,20.0331142 12,20.16975 12,20.5045918 C12,21.2476642 12.6769624,22 13.9708169,22 C15.2604111,22 16,21.3353475 16,20.1762983 L16,20.0276839 C16,19.4661272 15.7539248,19.045918 15.2850357,18.800197 Z" id="Path"></path>
                <path d="M18.1710902,18.2823526 C17.7456652,18.2823526 17.3973501,18.3775438 17.1314276,18.5659298 C17.1312572,17.7516937 16.9991906,16.9743521 18.0207898,16.9743521 C18.4290887,16.9743521 18.8686576,17.1545127 18.8686576,17.5501311 C18.8686576,17.7116846 18.9448302,17.9825643 19.4551186,17.9825643 C19.5899118,17.9825643 19.9999148,17.9825643 19.9999148,17.5110804 C19.9999148,16.760172 19.3258638,16 18.0374899,16 C16.7235547,16 16,16.6615469 16,17.8627767 L16,20.1372233 C16,21.338533 16.7117113,22 18.004175,22 C19.2911856,22 20,21.3384531 20,20.1372233 L20,19.9965129 C20.0000852,18.8750616 19.3676139,18.2823526 18.1710902,18.2823526 Z M18.0040898,21.0726844 C17.4167767,21.0726844 17.1312572,20.7820798 17.1312572,20.1842599 L17.1312572,19.9810203 C17.1312572,19.4388618 17.4059558,19.1863495 17.9957398,19.1863495 C18.5936182,19.1863495 18.8602224,19.4530765 18.8602224,20.0513756 C18.8603076,20.6550251 18.7233843,21.0726844 18.0040898,21.0726844 Z" id="Shape"></path>
                <path d="M21.995825,16 C20.7088144,16 20,16.6615469 20,17.8627767 L20,20.1372233 C20,21.3384531 20.7087292,22 21.995825,22 C23.2694585,22 24,21.3211239 24,20.1372233 L24,17.8627767 C24,16.678956 23.2694585,16 21.995825,16 Z M22.8603928,20.1373032 C22.8603928,20.7268178 22.5695054,21.0258076 21.9959102,21.0258076 C21.4197589,21.0258076 21.1396924,20.7352029 21.1396924,20.1373032 L21.1396924,17.8628565 C21.1396924,17.2650367 21.4197589,16.974432 21.9959102,16.974432 C22.5695906,16.974432 22.8603928,17.2733419 22.8603928,17.8628565 L22.8603928,20.1373032 Z" id="Shape"></path>
                <path d="M24.9979987,16 C24.4570454,16 24,16.3978569 24,16.8688559 L24,17.1238852 C24,17.590598 24.466385,18 24.9979987,18 C25.5316878,18 26,17.590598 26,17.1238852 L26,16.8688559 C26,16.397926 25.5411756,16 24.9979987,16 Z M25.1720406,17.1239544 C25.1720406,17.2165226 25.0890964,17.300795 24.9979987,17.300795 C24.9089764,17.300795 24.8279594,17.2165226 24.8279594,17.1239544 L24.8279594,16.868925 C24.8279594,16.7905289 24.9022311,16.6993432 24.9979987,16.6993432 C25.0959899,16.6993432 25.1720406,16.7904597 25.1720406,16.868925 L25.1720406,17.1239544 Z" id="Shape"></path>
            </g>
        </g>
    </g>
</svg>