<?xml version="1.0" encoding="UTF-8"?>
<svg width="54px" height="54px" viewBox="0 0 54 54" version="1.1" xmlns="http://www.w3.org/2000/svg" xmlns:xlink="http://www.w3.org/1999/xlink">
    <title>search (2)</title>
    <g id="desktop" stroke="none" stroke-width="1" fill="none" fill-rule="evenodd">
        <g id="rentals-category-copy" transform="translate(-1478.000000, -448.000000)" fill="#FFFFFF" fill-rule="nonzero">
            <g id="Group-3" transform="translate(383.000000, 439.000000)">
                <g id="search-(2)" transform="translate(1095.000000, 9.000000)">
                    <path d="M53.6703708,52.079625 L37.2398282,35.6489648 C40.6525835,31.8597891 42.750039,26.8638398 42.750039,21.3749297 C42.7499335,9.58890234 33.1611437,0 21.3750195,0 C9.58889532,0 0,9.58890234 0,21.3750352 C0,33.161168 9.58889532,42.7500703 21.3750195,42.7500703 C26.8639256,42.7500703 31.8597657,40.6526133 35.6490442,37.2398555 L52.0795869,53.6704102 C52.2992781,53.8901016 52.5872076,54 52.8750316,54 C53.1628556,54 53.4506796,53.8901016 53.6704763,53.6704102 C54.1098588,53.2309219 54.1098588,52.5190078 53.6703708,52.079625 Z M21.3750195,40.5 C10.8303671,40.5 2.25006866,31.92075 2.25006866,21.3750352 C2.25006866,10.8293203 10.8303671,2.24996484 21.3750195,2.24996484 C31.9196719,2.24996484 40.4999703,10.8292148 40.4999703,21.3750352 C40.4999703,31.9208555 31.9196719,40.5 21.3750195,40.5 Z" id="Shape"></path>
                </g>
            </g>
        </g>
    </g>
</svg>