<?xml version="1.0" encoding="UTF-8"?>
<svg width="14px" height="14px" viewBox="0 0 14 14" version="1.1" xmlns="http://www.w3.org/2000/svg" xmlns:xlink="http://www.w3.org/1999/xlink">
    <title>search (1)</title>
    <g id="desktop" stroke="none" stroke-width="1" fill="none" fill-rule="evenodd" opacity="0.64">
        <g id="rentals-category" transform="translate(-1671.000000, -122.000000)" fill="#FFFFFF" fill-rule="nonzero">
            <g id="search-(1)" transform="translate(1671.000000, 122.000000)">
                <path d="M10.2739478,9.0366537 C10.9628713,8.09586174 11.3749491,6.94027213 11.3749491,5.68752122 C11.3749491,2.5515299 8.82343403,0 5.68746096,0 C2.5514879,0 0,2.5515299 0,5.68752122 C0,8.82351253 2.55151506,11.3750424 5.68748812,11.3750424 C6.94023175,11.3750424 8.09592325,10.9629079 9.03670974,10.2739805 L12.7627076,14 L14,12.7627004 C14,12.7626732 10.2739478,9.0366537 10.2739478,9.0366537 L10.2739478,9.0366537 Z M5.68748812,9.62502546 C3.51622514,9.62502546 1.75000679,7.85879683 1.75000679,5.68752122 C1.75000679,3.5162456 3.51622514,1.75001697 5.68748812,1.75001697 C7.8587511,1.75001697 9.62496945,3.5162456 9.62496945,5.68752122 C9.62496945,7.85879683 7.85872395,9.62502546 5.68748812,9.62502546 Z" id="Shape"></path>
            </g>
        </g>
    </g>
</svg>