<?xml version="1.0" encoding="UTF-8"?>
<svg width="71px" height="71px" viewBox="0 0 71 71" version="1.1" xmlns="http://www.w3.org/2000/svg" xmlns:xlink="http://www.w3.org/1999/xlink">
    <title>consulting</title>
    <g id="desktop" stroke="none" stroke-width="1" fill="none" fill-rule="evenodd">
        <g id="about" transform="translate(-1059.000000, -1058.000000)" fill="#EEB62B" fill-rule="nonzero">
            <g id="3" transform="translate(1008.000000, 1058.000000)">
                <g id="consulting" transform="translate(51.000000, 0.000000)">
                    <path d="M35.5,9 C32.4673,9 30,11.6168333 30,14.8333333 L30,16 L32.2,16 L32.2,14.8333333 C32.2,12.9036667 33.6806,11.3333333 35.5,11.3333333 C37.3194,11.3333333 38.8,12.9036667 38.8,14.8333333 C38.8,16.763 37.3194,18.3333333 35.5,18.3333333 L34.4,18.3333333 L34.4,23 L36.6,23 L36.6,20.5488333 C39.1069,20.0063333 41,17.6508333 41,14.8333333 C41,11.6168333 38.5327,9 35.5,9 Z" id="Path"></path>
                    <polygon id="Path" points="35 25 37 25 37 27 35 27"></polygon>
                    <path d="M70.9244194,27.483871 L69.7792581,27.483871 C67.2690645,27.483871 65.0268387,25.9837097 64.0660484,23.6636129 C63.1075484,21.3469516 63.6343226,18.7027742 65.462,16.8750968 L66.271629,16.0654677 L55.7453065,5.53914516 L54.8818548,4.78333871 L54.0722258,5.59296774 C52.533129,7.13206452 50.3275484,7.72754839 48.2341935,7.21337097 C45.6220806,2.89954839 40.8994355,0 35.5,0 C30.1005645,0 25.3779194,2.89954839 22.7680968,7.21222581 C20.6747419,7.72525806 18.466871,7.12862903 16.8762419,5.53914516 L16.0654677,4.72951613 L5.53914516,15.2558387 L4.78333871,16.1192903 L5.59296774,16.9289194 C7.36682258,18.7027742 7.89359677,21.3458065 6.93509677,23.6647581 C5.97545161,25.9837097 3.73322581,27.483871 1.14516129,27.483871 L0,27.483871 L0,42.3709677 L0.0755806452,43.516129 L1.22074194,43.516129 C3.73208065,43.516129 5.97430645,45.0162903 6.93395161,47.3363871 C7.89245161,49.6530484 7.36567742,52.2972258 5.538,54.1249032 L4.72951613,54.9345323 L15.2558387,65.4608548 L16.1192903,66.2166613 L16.9289194,65.4070323 C18.7039194,63.6320323 21.3480968,63.1086935 23.6647581,64.0649032 C25.9837097,65.0245484 27.483871,67.2667742 27.483871,69.8548387 L27.483871,71 L42.3709677,71 L43.516129,70.9244194 L43.516129,69.7792581 C43.516129,67.2679194 45.0162903,65.0256935 47.3363871,64.0660484 C49.6519032,63.1075484 52.2960806,63.6331774 54.1249032,65.462 L54.9345323,66.271629 L65.4608548,55.7453065 L66.2166613,54.8818548 L65.4070323,54.0722258 C63.6331774,52.298371 63.1064032,49.6553387 64.0649032,47.3363871 C65.0245484,45.0162903 67.2667742,43.516129 69.8548387,43.516129 L71,43.516129 L71,28.6290323 L70.9244194,27.483871 Z M59.5483871,35.5 C59.5483871,43.1382258 55.9571613,49.941629 50.3870968,54.3505 L50.3870968,32.0645161 L41.2258065,32.0645161 L41.2258065,58.830371 C40.4745806,59.0147419 39.7119032,59.1613226 38.9354839,59.2735484 L38.9354839,36.6451613 L29.7741935,36.6451613 L29.7741935,58.830371 C28.9943387,58.639129 28.2316613,58.4100968 27.483871,58.1444194 L27.483871,41.2258065 L18.3225806,41.2258065 L18.3225806,52.298371 C14.0786129,47.9593548 11.4516129,42.0331452 11.4516129,35.5 C11.4516129,28.073629 14.8447258,21.1728871 20.6129032,16.6254516 L20.6129032,24.0483871 C20.6129032,27.2055968 23.1815,29.7741935 26.3387097,29.7741935 C28.2328065,29.7741935 29.7741935,28.2328065 29.7741935,26.3387097 L29.7741935,22.0283226 C29.7741935,20.7182581 29.045871,19.5410323 27.8755161,18.9547097 L27.483871,18.7600323 L27.483871,14.8870968 C27.483871,10.4679194 31.0808226,6.87096774 35.5,6.87096774 C39.9191774,6.87096774 43.516129,10.4679194 43.516129,14.8870968 L43.516129,18.7600323 L43.1244839,18.9558548 C41.954129,19.5410323 41.2258065,20.7194032 41.2258065,22.0283226 L41.2258065,26.3387097 C41.2258065,28.2328065 42.7671935,29.7741935 44.6612903,29.7741935 C47.8185,29.7741935 50.3870968,27.2055968 50.3870968,24.0483871 L50.3870968,16.6254516 C56.1552742,21.1728871 59.5483871,28.073629 59.5483871,35.5 L59.5483871,35.5 Z M48.0967742,55.9457097 C46.6618871,56.8332097 45.1296613,57.5718387 43.516129,58.1444194 L43.516129,34.3548387 L48.0967742,34.3548387 L48.0967742,55.9457097 Z M36.6451613,59.4899839 C36.2626774,59.5083065 35.8870645,59.5483871 35.5,59.5483871 C34.3307903,59.5483871 33.1902097,59.4361613 32.0645161,59.2735484 L32.0645161,38.9354839 L36.6451613,38.9354839 L36.6451613,59.4899839 Z M25.1935484,57.1950806 C23.5571129,56.4140806 22.0203065,55.4647419 20.6129032,54.3505 L20.6129032,43.516129 L25.1935484,43.516129 L25.1935484,57.1950806 Z M26.0684516,20.6129032 L26.8517419,21.0045484 C27.2410968,21.1992258 27.483871,21.590871 27.483871,22.0283226 L27.483871,26.3387097 C27.483871,26.9708387 26.9708387,27.483871 26.3387097,27.483871 C24.4446129,27.483871 22.9032258,25.9424839 22.9032258,24.0483871 L22.9032258,20.6129032 L26.0684516,20.6129032 Z M44.9315484,20.6129032 L48.0967742,20.6129032 L48.0967742,24.0483871 C48.0967742,25.9424839 46.5553871,27.483871 44.6612903,27.483871 C44.0291613,27.483871 43.516129,26.9708387 43.516129,26.3387097 L43.516129,22.0283226 C43.516129,21.590871 43.7589032,21.1980806 44.1494032,21.0034032 L44.9315484,20.6129032 Z M35.5,2.29032258 C42.4454032,2.29032258 48.0967742,7.94169355 48.0967742,14.8870968 L48.0967742,18.3225806 L45.8064516,18.3225806 L45.8064516,14.8870968 C45.8064516,9.20366129 41.1834355,4.58064516 35.5,4.58064516 C29.8165645,4.58064516 25.1935484,9.20366129 25.1935484,14.8870968 L25.1935484,18.3225806 L22.9032258,18.3225806 L22.9032258,14.8870968 C22.9032258,7.94169355 28.5545968,2.29032258 35.5,2.29032258 Z M68.7096774,41.293371 C65.7116452,41.6689839 63.125871,43.6134677 61.9497903,46.4603387 C60.7805806,49.2865968 61.2226129,52.4655645 63.0835,54.8818548 L54.8875806,63.0789194 C52.5022097,61.2271935 49.2991935,60.7714194 46.4614839,61.9497903 C43.6317903,63.119 41.6930323,65.681871 41.3002419,68.7096774 L29.706629,68.7096774 C29.3310161,65.7116452 27.3865323,63.125871 24.5396613,61.9497903 C21.7145484,60.7805806 18.5332903,61.2226129 16.117,63.0835 L7.92108065,54.8875806 C9.77280645,52.5033548 10.2274355,49.302629 9.05020968,46.4614839 C7.881,43.6317903 5.31927419,41.6918871 2.29032258,41.2990968 L2.29032258,29.706629 C5.28835484,29.3310161 7.87412903,27.3865323 9.05020968,24.5396613 C10.2194194,21.7134032 9.7773871,18.5344355 7.9165,16.1181452 L16.1124194,7.92108065 C17.6812903,9.13953226 19.6120323,9.74646774 21.5702581,9.68233871 C21.0892903,10.9637742 20.7789516,12.3242258 20.6701613,13.7442258 C13.4579355,18.666129 9.16129032,26.7509677 9.16129032,35.5 C9.16129032,50.0240806 20.9759194,61.8387097 35.5,61.8387097 C50.0240806,61.8387097 61.8387097,50.0240806 61.8387097,35.5 C61.8387097,26.7509677 57.5420645,18.666129 50.3286935,13.7430806 C50.2199032,12.3230806 49.9095645,10.962629 49.4285968,9.68119355 C51.3707903,9.74303226 53.292371,9.14067742 54.8807097,7.9165 L63.0777742,16.1124194 C61.2260484,18.4966452 60.7714194,21.697371 61.9486452,24.5396613 C63.119,27.3682097 65.681871,29.3069677 68.7085323,29.6997581 L68.7085323,41.293371 L68.7096774,41.293371 Z" id="Shape"></path>
                </g>
            </g>
        </g>
    </g>
</svg>