<?xml version="1.0" encoding="UTF-8"?>
<svg width="25px" height="25px" viewBox="0 0 25 25" version="1.1" xmlns="http://www.w3.org/2000/svg" xmlns:xlink="http://www.w3.org/1999/xlink">
    <title>002-twitter</title>
    <g id="desktop" stroke="none" stroke-width="1" fill="none" fill-rule="evenodd">
        <g id="contacts" transform="translate(-1361.000000, -632.000000)" fill="#FFFFFF" fill-rule="nonzero">
            <g id="Group" transform="translate(1325.000000, 632.000000)">
                <g id="002-twitter" transform="translate(36.000000, 0.000000)">
                    <path d="M23.1969833,0 L1.80301665,0 C0.807189941,0 0,0.807189941 0,1.80301665 L0,23.1969833 C0,24.1928101 0.807189941,25 1.80301665,25 L23.1969833,25 C24.1928101,25 25,24.1928101 25,23.1969833 L25,1.80301665 C25,0.807189941 24.1928101,0 23.1969833,0 Z M14.1126633,19.5589065 C11.0366821,19.6119309 9.87148286,17.3677444 9.87148286,15.7880783 L9.87148286,11.1747742 L8.44230654,11.1747742 L8.44230654,9.35096738 C10.5846405,8.57849121 11.0996246,6.64634707 11.2205505,5.54561616 C11.2289429,5.46989443 11.2884521,5.44013975 11.3224029,5.44013975 L13.3901596,5.44013975 L13.3901596,9.03701782 L16.2160874,9.03701782 L16.2160874,11.1749649 L13.3804321,11.1749649 L13.3804321,15.5704498 C13.3895874,16.1680222 13.6089325,16.9923782 14.739418,16.9620514 C15.1138306,16.9527054 15.6158447,16.8437958 15.8784866,16.718483 L16.5575027,18.7316895 C16.3030625,19.1068649 15.1504517,19.5411682 14.1126633,19.5589065 Z" id="Shape"></path>
                </g>
            </g>
        </g>
    </g>
</svg>