<?xml version="1.0" encoding="UTF-8"?>
<svg width="25px" height="25px" viewBox="0 0 25 25" version="1.1" xmlns="http://www.w3.org/2000/svg" xmlns:xlink="http://www.w3.org/1999/xlink">
    <title>008-youtube</title>
    <g id="desktop" stroke="none" stroke-width="1" fill="none" fill-rule="evenodd">
        <g id="contacts" transform="translate(-1435.000000, -632.000000)" fill="#FFFFFF" fill-rule="nonzero">
            <g id="Group" transform="translate(1325.000000, 632.000000)">
                <g id="008-youtube" transform="translate(110.000000, 0.000000)">
                    <polygon id="Path" points="11.25 15 15 12.5 11.25 10"></polygon>
                    <path d="M23.1969833,0 L1.80301665,0 C0.807189941,0 0,0.807189941 0,1.80301665 L0,23.1969833 C0,24.1928101 0.807189941,25 1.80301665,25 L23.1969833,25 C24.1928101,25 25,24.1928101 25,23.1969833 L25,1.80301665 C25,0.807189941 24.1928101,0 23.1969833,0 Z M20.3106598,12.5127792 C20.3106598,12.5127792 20.3106598,15.0478363 19.9890137,16.2702561 C19.8087692,16.939354 19.2811966,17.4669266 18.6120987,17.6469803 C17.389679,17.96875 12.5,17.96875 12.5,17.96875 C12.5,17.96875 7.62310029,17.96875 6.38790132,17.6342011 C5.71880342,17.4541474 5.19123076,16.926384 5.01098633,16.2572861 C4.6892166,15.0478363 4.6892166,12.5 4.6892166,12.5 C4.6892166,12.5 4.6892166,9.96513369 5.01098633,8.74271392 C5.19104004,8.07361602 5.73158262,7.53307344 6.38790132,7.35301973 C7.61032104,7.03125 12.5,7.03125 12.5,7.03125 C12.5,7.03125 17.389679,7.03125 18.6120987,7.36579893 C19.2811966,7.54585264 19.8087692,8.07361602 19.9890137,8.74271392 C20.3235626,9.96513369 20.3106598,12.5127792 20.3106598,12.5127792 L20.3106598,12.5127792 Z" id="Shape"></path>
                </g>
            </g>
        </g>
    </g>
</svg>